<svg width="340" height="123" viewBox="0 0 340 123" fill="none" xmlns="http://www.w3.org/2000/svg">
<path d="M113.764 73.984H107.259V60.6787H95.0641V73.984H88.5361V43.18H95.0641V55.2387H107.259V43.18H113.764V73.984Z" fill="black"/>
<path d="M118.343 44.336C118.343 42.2507 119.521 41.208 121.856 41.208C124.191 41.208 125.347 42.2507 125.347 44.336C125.361 44.754 125.29 45.1705 125.138 45.5602C124.986 45.9499 124.756 46.3046 124.463 46.6027C123.731 47.1997 122.797 47.492 121.856 47.4187C119.521 47.6 118.343 46.444 118.343 44.336ZM125.143 73.984H118.615V50.4333H125.052L125.143 73.984Z" fill="black"/>
<path d="M142.505 49.98C143.265 49.9643 144.025 50.0251 144.772 50.1613L144.296 56.1907C143.672 56.0431 143.033 55.9745 142.392 55.9867C140.653 55.8836 138.942 56.4515 137.609 57.5733C137.003 58.1534 136.534 58.8614 136.236 59.6455C135.938 60.4297 135.819 61.2705 135.887 62.1067V74.0973H129.381V50.4333H134.232L135.184 54.4H135.501C136.206 53.1076 137.228 52.0156 138.471 51.2267C139.66 50.4151 141.066 49.9807 142.505 49.98Z" fill="black"/>
<path d="M146.268 44.336C146.268 42.2507 147.447 41.208 149.759 41.208C152.071 41.208 153.272 42.2507 153.272 44.336C153.286 44.754 153.215 45.1705 153.063 45.5602C152.911 45.9499 152.681 46.3046 152.388 46.6027C151.647 47.1991 150.707 47.4909 149.759 47.4187C147.447 47.6 146.268 46.444 146.268 44.336ZM153.068 73.984H146.54V50.4333H152.977L153.068 73.984Z" fill="black"/>
<path d="M179.067 73.984H172.607V60.2253C172.701 58.8859 172.385 57.5495 171.7 56.3947C171.362 55.9624 170.922 55.6203 170.42 55.3989C169.918 55.1774 169.368 55.0835 168.821 55.1253C168.072 55.0571 167.317 55.1865 166.633 55.5007C165.949 55.8148 165.359 56.3028 164.923 56.916C163.982 58.7633 163.567 60.833 163.721 62.9V73.984H157.284V50.4333H162.203L163.064 53.448H163.427C164.121 52.3052 165.15 51.4032 166.373 50.864C167.726 50.2563 169.197 49.9544 170.68 49.98C171.819 49.9088 172.96 50.0733 174.033 50.4633C175.105 50.8533 176.086 51.4604 176.913 52.2467C178.421 54.0153 179.192 56.2954 179.067 58.616V73.984Z" fill="black"/>
<path d="M203.728 50.4333V53.6973L200.033 54.6493C200.716 55.7008 201.071 56.9316 201.053 58.1853C201.108 59.3072 200.896 60.4261 200.435 61.4503C199.974 62.4746 199.277 63.3753 198.401 64.0787C196.274 65.6182 193.678 66.3713 191.057 66.2093H189.901L188.949 66.096C188.67 66.2884 188.438 66.541 188.269 66.8352C188.1 67.1294 188 67.4578 187.975 67.796C187.975 68.7027 189.153 69.1787 191.511 69.1787H195.5C197.605 69.025 199.697 69.6102 201.416 70.8333C202.111 71.4366 202.657 72.1925 203.011 73.042C203.365 73.8914 203.517 74.8112 203.456 75.7293C203.494 77.0036 203.196 78.2653 202.591 79.3875C201.986 80.5097 201.096 81.4526 200.011 82.1213C197.004 83.8132 193.572 84.6003 190.128 84.388C187.498 84.5572 184.876 83.9587 182.58 82.6653C181.764 82.1628 181.096 81.4538 180.642 80.61C180.188 79.7662 179.966 78.8176 179.996 77.86C179.971 77.2008 180.076 76.5431 180.305 75.9246C180.535 75.3061 180.884 74.7391 181.333 74.256C182.395 73.1947 183.755 72.4829 185.232 72.216C184.553 71.9042 183.961 71.4292 183.509 70.8333C183.01 70.2313 182.737 69.4736 182.737 68.6913C182.737 67.9091 183.01 67.1514 183.509 66.5493C184.173 65.8502 184.937 65.2543 185.776 64.7813C184.548 64.2597 183.517 63.3632 182.829 62.22C182.099 60.9536 181.73 59.5109 181.764 58.0493C181.705 56.9388 181.898 55.8293 182.33 54.8044C182.762 53.7796 183.421 52.8663 184.257 52.1333C186.32 50.6042 188.858 49.8572 191.42 50.0253C192.179 50.0422 192.935 50.1027 193.687 50.2067C194.265 50.2663 194.841 50.3571 195.409 50.4787L203.728 50.4333ZM185.595 77.2933C185.585 77.7258 185.7 78.152 185.925 78.5215C186.15 78.891 186.476 79.1884 186.864 79.3787C187.965 79.9583 189.204 80.2249 190.445 80.1493C192.292 80.2344 194.134 79.9092 195.84 79.1973C196.389 79.0127 196.87 78.668 197.222 78.2074C197.573 77.7469 197.779 77.1917 197.812 76.6133C197.839 76.2242 197.742 75.8364 197.534 75.5063C197.326 75.1762 197.019 74.9209 196.656 74.7773C195.505 74.3827 194.289 74.2134 193.075 74.2787H189.697C188.648 74.2412 187.611 74.5259 186.728 75.0947C186.362 75.3319 186.062 75.6579 185.856 76.0423C185.65 76.4268 185.544 76.8571 185.549 77.2933H185.595ZM187.861 58.14C187.804 59.2337 188.124 60.3139 188.768 61.2C189.114 61.5523 189.527 61.8321 189.982 62.0231C190.438 62.2141 190.926 62.3124 191.42 62.3124C191.914 62.3124 192.403 62.2141 192.858 62.0231C193.313 61.8321 193.726 61.5523 194.072 61.2C194.69 60.3034 194.993 59.2272 194.933 58.14C194.933 55.3067 193.777 53.8787 191.443 53.8787C189.108 53.8787 187.884 55.3067 187.884 58.14H187.861Z" fill="black"/>
<path d="M217.985 61.2V74.0067H214.404V43.18H222.836C225.807 42.9759 228.76 43.774 231.223 45.4467C232.147 46.2514 232.872 47.26 233.341 48.3929C233.809 49.5258 234.007 50.752 233.92 51.9747C233.992 53.8512 233.416 55.6953 232.29 57.1976C231.163 58.6999 229.554 59.769 227.732 60.2253L236.096 74.0747H231.857L224.4 61.2H217.985ZM217.985 58.1173H222.881C224.861 58.2818 226.835 57.7441 228.457 56.5987C229.076 56.0258 229.556 55.3202 229.862 54.535C230.168 53.7499 230.293 52.9055 230.225 52.0653C230.299 51.2406 230.173 50.4101 229.857 49.6446C229.542 48.879 229.046 48.201 228.412 47.668C226.676 46.6203 224.654 46.1445 222.632 46.308H218.099L217.985 58.1173Z" fill="black"/>
<path d="M258.037 62.4013C258.237 65.5924 257.225 68.7413 255.204 71.2187C254.207 72.2931 252.985 73.1346 251.625 73.6831C250.266 74.2316 248.802 74.4736 247.339 74.392C245.41 74.4333 243.509 73.9305 241.853 72.9413C240.23 71.9478 238.937 70.4968 238.136 68.7707C237.233 66.7711 236.792 64.5944 236.844 62.4013C236.648 59.2214 237.651 56.0836 239.655 53.6067C240.655 52.5459 241.876 51.7164 243.23 51.1761C244.585 50.6358 246.041 50.3978 247.497 50.4787C248.937 50.4108 250.373 50.6644 251.702 51.2212C253.031 51.7779 254.22 52.6238 255.181 53.6973C257.189 56.1388 258.208 59.2448 258.037 62.4013ZM240.448 62.4013C240.27 64.8042 240.901 67.1975 242.239 69.2013C242.895 69.9298 243.698 70.5122 244.594 70.9108C245.49 71.3094 246.46 71.5154 247.441 71.5154C248.421 71.5154 249.391 71.3094 250.287 70.9108C251.183 70.5122 251.986 69.9298 252.643 69.2013C253.971 67.1932 254.6 64.8032 254.433 62.4013C254.609 59.9986 253.979 57.6059 252.643 55.6013C252.01 54.8322 251.202 54.2252 250.288 53.831C249.373 53.4368 248.378 53.2666 247.384 53.3347C246.404 53.27 245.423 53.4423 244.523 53.8368C243.623 54.2313 242.832 54.8365 242.216 55.6013C240.879 57.6051 240.257 60.0004 240.448 62.4013Z" fill="black"/>
<path d="M281.679 62.4013C281.866 65.5983 280.838 68.7479 278.8 71.2187C277.803 72.2931 276.581 73.1346 275.222 73.6831C273.862 74.2316 272.398 74.4736 270.935 74.392C269.006 74.4333 267.105 73.9305 265.449 72.9413C263.826 71.9478 262.533 70.4968 261.732 68.7707C260.83 66.7711 260.388 64.5944 260.44 62.4013C260.244 59.2214 261.247 56.0836 263.251 53.6067C264.252 52.5459 265.472 51.7164 266.826 51.1761C268.181 50.6358 269.637 50.3978 271.093 50.4787C272.536 50.409 273.977 50.6617 275.31 51.2185C276.643 51.7752 277.835 52.622 278.8 53.6973C280.816 56.1355 281.844 59.2418 281.679 62.4013ZM264.089 62.4013C263.917 64.8005 264.539 67.1898 265.857 69.2013C266.516 69.9303 267.321 70.5131 268.219 70.9119C269.116 71.3107 270.088 71.5168 271.071 71.5168C272.053 71.5168 273.025 71.3107 273.923 70.9119C274.821 70.5131 275.625 69.9303 276.284 69.2013C277.603 67.1898 278.224 64.8005 278.052 62.4013C278.234 60.0012 277.612 57.6087 276.284 55.6013C275.651 54.8322 274.844 54.2252 273.929 53.831C273.015 53.4368 272.019 53.2666 271.025 53.3347C270.045 53.27 269.064 53.4423 268.165 53.8368C267.265 54.2313 266.474 54.8365 265.857 55.6013C264.521 57.6051 263.898 60.0004 264.089 62.4013Z" fill="black"/>
<path d="M314.817 73.984V58.9333C314.928 57.4547 314.511 55.9846 313.639 54.7853C313.17 54.3017 312.599 53.9287 311.967 53.6935C311.336 53.4582 310.66 53.3666 309.989 53.4253C309.096 53.3509 308.198 53.4794 307.362 53.8013C306.526 54.1232 305.774 54.6301 305.161 55.284C303.987 56.9717 303.434 59.0144 303.597 61.064V73.9613H300.107V58.9333C300.208 57.4557 299.791 55.9889 298.928 54.7853C298.454 54.2955 297.876 53.9188 297.236 53.6833C296.596 53.4479 295.912 53.3597 295.233 53.4253C294.335 53.3499 293.432 53.4871 292.598 53.8258C291.763 54.1645 291.019 54.6951 290.428 55.3747C289.239 57.3088 288.699 59.5721 288.887 61.8347V73.9613H285.396V50.8867H288.252L288.819 54.0373H288.977C289.641 52.9165 290.607 52.0052 291.765 51.408C293.013 50.7713 294.399 50.4521 295.8 50.4787C297.243 50.2893 298.709 50.568 299.982 51.2739C301.255 51.9798 302.268 53.0755 302.872 54.4H303.053C303.738 53.1766 304.761 52.177 306 51.5213C307.397 50.7913 308.958 50.4323 310.533 50.4787C311.596 50.396 312.664 50.5302 313.673 50.8731C314.683 51.216 315.612 51.7604 316.404 52.4733C317.855 54.2898 318.553 56.5943 318.353 58.9107V73.984H314.817Z" fill="black"/>
<path d="M21.5333 23.3467V98.94H74.052V23.3467H21.5333ZM62.3333 91.868L24.7293 96.4014V26.1347L62.3333 30.668V91.868Z" fill="#24BB72"/>
</svg>
