<?xml version="1.0" standalone="no"?>
<!DOCTYPE svg PUBLIC "-//W3C//DTD SVG 1.1//EN" "http://www.w3.org/Graphics/SVG/1.1/DTD/svg11.dtd" >
<svg xmlns="http://www.w3.org/2000/svg">
<metadata>Generated by IcoMoon</metadata>
<defs>
<font id="Hiring-Font" horiz-adv-x="1024">
<font-face units-per-em="1024" ascent="960" descent="-64" />
<missing-glyph horiz-adv-x="1024" />
<glyph unicode="&#x20;" horiz-adv-x="512" d="" />
<glyph unicode="&#xe900;" glyph-name="Edit-file" d="M870.827 721.493l-85.333 85.333c-15.424 15.335-36.685 24.814-60.16 24.814s-44.736-9.479-60.164-24.818l-298.663-298.663c-9.143-9.125-16.286-20.252-20.716-32.666l-0.191-0.614-42.667-128c-2.754-8.022-4.344-17.265-4.344-26.88 0-47.128 38.205-85.333 85.333-85.333 0.027 0 0.055 0 0.082 0h-0.004c0.21-0.002 0.459-0.003 0.708-0.003 9.364 0 18.364 1.563 26.751 4.443l-0.579-0.173 128 42.667c13.033 4.406 24.175 11.424 33.284 20.484l298.663 298.663c15.462 15.446 25.027 36.792 25.027 60.373s-9.565 44.928-25.026 60.373l-0.001 0.001zM512 362.667l-128-42.667 42.667 128 183.040 183.040 85.333-85.333zM755.627 605.867l-85.333 85.333 55.040 55.467 85.333-85.333zM853.333 405.333c0 23.564-19.103 42.667-42.667 42.667s-42.667-19.103-42.667-42.667v0-256h-554.667v554.667h256c23.564 0 42.667 19.103 42.667 42.667s-19.103 42.667-42.667 42.667v0h-298.667c-23.564 0-42.667-19.103-42.667-42.667v0-640c0-23.564 19.103-42.667 42.667-42.667v0h640c23.564 0 42.667 19.103 42.667 42.667v0 0 0z" />
<glyph unicode="&#xe901;" glyph-name="Invite" d="M702.72 478.293l-170.667 170.667c-7.712 7.668-18.343 12.407-30.080 12.407s-22.368-4.74-30.082-12.409l0.002 0.002c-7.795-7.733-12.621-18.45-12.621-30.293s4.826-22.56 12.618-30.291l97.71-97.71h-356.267c-23.564 0-42.667-19.103-42.667-42.667s19.103-42.667 42.667-42.667v0h356.267l-97.707-97.707c-7.789-7.736-12.611-18.452-12.611-30.293 0-23.577 19.113-42.691 42.691-42.691 11.736 0 22.365 4.735 30.082 12.4l170.665 170.665c7.795 7.733 12.621 18.45 12.621 30.293s-4.826 22.56-12.618 30.291l-0.003 0.003zM853.333 832h-512c-23.564 0-42.667-19.103-42.667-42.667s19.103-42.667 42.667-42.667v0h469.333v-597.333h-469.333c-23.564 0-42.667-19.103-42.667-42.667s19.103-42.667 42.667-42.667v0h512c23.564 0 42.667 19.103 42.667 42.667v0 682.667c0 23.564-19.103 42.667-42.667 42.667v0z" />
<glyph unicode="&#xe902;" glyph-name="Terna" d="M746.667 519.253v202.24c0.003 0.27 0.005 0.59 0.005 0.909 0 34.62-20.616 64.424-50.241 77.807l-0.538 0.217-149.333 66.987c-10.168 4.619-22.049 7.312-34.56 7.312s-24.392-2.692-35.098-7.529l0.538 0.217-149.333-66.987c-30.162-13.6-50.778-43.404-50.778-78.024 0-0.32 0.002-0.639 0.005-0.958v0.049-202.24l-141.227-63.573c-30.162-13.6-50.778-43.404-50.778-78.024 0-0.32 0.002-0.639 0.005-0.958v0.049-202.24c-0.003-0.27-0.005-0.59-0.005-0.909 0-34.62 20.616-64.424 50.241-77.807l0.538-0.217 148.48-66.987c10.225-4.679 22.181-7.406 34.773-7.406s24.548 2.728 35.308 7.624l-0.535-0.218 157.867 70.827 156.587-70.827c10.225-4.679 22.181-7.406 34.773-7.406s24.548 2.728 35.308 7.624l-0.535-0.218 149.76 66.987c30.162 13.6 50.778 43.404 50.778 78.024 0 0.32-0.002 0.639-0.005 0.958v-0.049 202.24c0.003 0.27 0.005 0.59 0.005 0.909 0 34.62-20.616 64.424-50.241 77.807l-0.538 0.217zM704 366.080l-85.333 38.827 85.333 38.827 85.333-38.827zM469.333 635.307v-164.267l-106.667 48.213v163.84zM554.667 471.467v163.84l106.667 47.787v-163.84zM406.613 405.333l-85.333-38.827-85.333 38.827 85.333 38.827zM363.947 291.413l105.387 47.36v-164.267l-106.667-47.787zM597.333 749.653l-85.333-39.253-85.333 39.253 85.333 39.68zM170.667 338.773l106.667-47.787v-164.693l-106.667 48.213zM554.667 338.773l106.667-47.787v-164.693l-106.667 48.213zM746.667 125.44v165.547l106.667 47.787v-164.267z" />
<glyph unicode="&#xe903;" glyph-name="Type" d="M811.947 20.907h-599.893c-22.857 0-41.387 18.529-41.387 41.387v2.56c0 22.857 18.529 41.387 41.387 41.387h599.893c22.857 0 41.387-18.529 41.387-41.387v-2.56c0-22.857-18.529-41.387-41.387-41.387zM807.253 251.307l-256 597.333c-6.675 15.382-21.73 25.945-39.253 25.945s-32.579-10.563-39.147-25.669l-0.107-0.276-256-597.333c-2.19-4.969-3.465-10.762-3.465-16.853 0-23.593 19.126-42.718 42.718-42.718 17.502 0 32.545 10.525 39.146 25.59l0.107 0.275 80.213 187.733h273.067l80.213-187.733c6.753-15.195 21.714-25.6 39.105-25.6 0.052 0 0.104 0 0.157 0h-0.008c0.289-0.008 0.629-0.013 0.971-0.013 5.683 0 11.071 1.263 15.899 3.523l-0.23-0.097c15.403 6.666 25.985 21.732 25.985 39.27 0 6.004-1.24 11.718-3.478 16.9l0.106-0.277zM412.16 490.667l99.84 232.96 99.84-232.96z" />
<glyph unicode="&#xe904;" glyph-name="Video" d="M813.227 622.933l-87.893-46.933v42.667c0 47.128-38.205 85.333-85.333 85.333v0h-469.333c-47.128 0-85.333-38.205-85.333-85.333v0-341.333c0-47.128 38.205-85.333 85.333-85.333v0h469.333c47.128 0 85.333 38.205 85.333 85.333v0 42.667l87.893-46.933c11.612-6.306 25.427-10.013 40.107-10.013 47.128 0 85.333 38.205 85.333 85.333 0 0.070 0 0.14 0 0.21v-0.011 198.827c0 0.059 0 0.129 0 0.199 0 47.128-38.205 85.333-85.333 85.333-14.68 0-28.495-3.707-40.558-10.236l0.451 0.223zM640 277.333h-469.333v341.333h469.333zM853.333 348.587l-128 68.267v62.293l128 68.267z" />
<glyph unicode="&#xe905;" glyph-name="Alert" d="M512 874.667c-1.181 0.036-2.57 0.056-3.963 0.056-50.643 0-95.041-26.737-119.849-66.865l-0.348-0.605-327.68-542.72c-10.781-18.359-17.149-40.436-17.149-64s6.368-45.641 17.476-64.604l-0.327 0.604c24.913-43.255 70.693-72.026 123.235-72.533l0.072-0.001h654.933c0.402-0.004 0.877-0.006 1.353-0.006 52.439 0 98.302 28.155 123.297 70.173l0.363 0.66c10.781 18.359 17.149 40.436 17.149 64s-6.368 45.641-17.476 64.604l0.327-0.604-329.387 544.427c-25.457 40.727-70.052 67.418-120.881 67.418-0.403 0-0.805-0.002-1.207-0.005h0.061zM183.467 149.333c-0.663-0.028-1.44-0.044-2.222-0.044-20.581 0-38.583 11.039-48.409 27.519l-0.143 0.258c-3.594 6.12-5.716 13.479-5.716 21.333s2.123 15.214 5.825 21.535l-0.109-0.201 328.107 543.147c10.208 16.048 27.898 26.541 48.040 26.541 1.112 0 2.216-0.032 3.312-0.095l-0.152 0.007c0.955 0.057 2.072 0.089 3.197 0.089 19.491 0 36.705-9.754 47.025-24.647l0.124-0.189 327.253-542.72c3.594-6.12 5.716-13.479 5.716-21.333s-2.123-15.214-5.825-21.535l0.109 0.201c-10.071-16.741-28.143-27.768-48.79-27.768-0.698 0-1.392 0.013-2.084 0.038l0.1-0.003zM512 618.667c-23.564 0-42.667-19.103-42.667-42.667v0-170.667c0-23.564 19.103-42.667 42.667-42.667s42.667 19.103 42.667 42.667v0 170.667c0 23.564-19.103 42.667-42.667 42.667v0zM512 320c-23.564 0-42.667-19.103-42.667-42.667s19.103-42.667 42.667-42.667c23.564 0 42.667 19.103 42.667 42.667v0c0 23.564-19.103 42.667-42.667 42.667v0z" />
<glyph unicode="&#xe906;" glyph-name="Arrow-up" d="M213.333 533.333c-0.147-0.002-0.32-0.003-0.494-0.003-13.147 0-24.905 5.946-32.732 15.296l-0.054 0.067c-6.41 7.422-10.315 17.164-10.315 27.818 0 13.374 6.153 25.311 15.783 33.134l0.079 0.062 304.64 256c7.409 6.367 17.119 10.243 27.733 10.243s20.324-3.876 27.79-10.29l-0.057 0.048 292.267-256c9.147-7.872 14.904-19.463 14.904-32.399 0-10.826-4.032-20.711-10.677-28.234l0.040 0.046c-7.865-9.022-19.378-14.691-32.215-14.691-10.713 0-20.503 3.948-27.996 10.469l0.052-0.044-264.533 229.973-276.48-231.68c-7.329-6.108-16.845-9.816-27.227-9.816-0.178 0-0.356 0.001-0.534 0.003h0.027zM512 832c23.564 0 42.667-19.103 42.667-42.667v-725.333c0-23.564-19.103-42.667-42.667-42.667s-42.667 19.103-42.667 42.667v725.333c0 23.564 19.103 42.667 42.667 42.667z" />
<glyph unicode="&#xe907;" glyph-name="Calendar" d="M832.853 746.667h-64.853v42.667c0 23.564-19.103 42.667-42.667 42.667s-42.667-19.103-42.667-42.667v0-42.667h-341.333v42.667c0 23.564-19.103 42.667-42.667 42.667s-42.667-19.103-42.667-42.667v0-42.667h-82.347c-0.127 0.001-0.277 0.001-0.428 0.001-48.542 0-87.893-39.351-87.893-87.893 0-0.15 0-0.301 0.001-0.451v0.023-488.533c0-58.439 47.374-105.813 105.813-105.813v0h640c0.508-0.009 1.107-0.014 1.707-0.014 58.439 0 105.813 47.374 105.813 105.813 0 0.005 0 0.010 0 0.014v-0.001 469.333c0.009 0.508 0.014 1.107 0.014 1.707 0 58.439-47.374 105.813-105.813 105.813-0.005 0-0.010 0-0.014 0h0.001zM256 661.333v-42.667c0-23.564 19.103-42.667 42.667-42.667s42.667 19.103 42.667 42.667v0 42.667h341.333v-42.667c0-23.564 19.103-42.667 42.667-42.667s42.667 19.103 42.667 42.667v0 42.667h85.333v-128h-682.667v128zM170.667 149.333v298.667h682.667v-298.667z" />
<glyph unicode="&#xe908;" glyph-name="Calendar2" d="M832.853 746.667h-64.853v42.667c0 23.564-19.103 42.667-42.667 42.667s-42.667-19.103-42.667-42.667v0-42.667h-341.333v42.667c0 23.564-19.103 42.667-42.667 42.667s-42.667-19.103-42.667-42.667v0-42.667h-82.347c-0.127 0.001-0.277 0.001-0.428 0.001-48.542 0-87.893-39.351-87.893-87.893 0-0.15 0-0.301 0.001-0.451v0.023-488.533c0-58.439 47.374-105.813 105.813-105.813v0h640c0.508-0.009 1.107-0.014 1.707-0.014 58.439 0 105.813 47.374 105.813 105.813 0 0.005 0 0.010 0 0.014v-0.001 469.333c0.009 0.508 0.014 1.107 0.014 1.707 0 58.439-47.374 105.813-105.813 105.813-0.005 0-0.010 0-0.014 0h0.001zM853.333 149.333h-682.667v512h85.333v-42.667c0-23.564 19.103-42.667 42.667-42.667s42.667 19.103 42.667 42.667v0 42.667h341.333v-42.667c0-23.564 19.103-42.667 42.667-42.667s42.667 19.103 42.667 42.667v0 42.667h85.333zM640 448c-1.407 69.605-58.165 125.492-127.975 125.492-70.692 0-128-57.308-128-128 0-16.915 3.281-33.064 9.242-47.845l-0.306 0.86c-29.599-31.448-47.787-73.928-47.787-120.656 0-0.182 0-0.364 0.001-0.545v0.028-42.667c0-23.564 19.103-42.667 42.667-42.667v0h256c23.564 0 42.667 19.103 42.667 42.667v0 42.667c0.001 0.259 0.002 0.566 0.002 0.873 0 49.928-20.765 95.007-54.13 127.071l-0.059 0.056c4.655 12.674 7.45 27.308 7.679 42.564l0.001 0.103zM512 490.667c23.564 0 42.667-19.103 42.667-42.667s-19.103-42.667-42.667-42.667c-23.564 0-42.667 19.103-42.667 42.667v0c0 23.564 19.103 42.667 42.667 42.667v0zM430.933 277.333c0 47.128 38.205 85.333 85.333 85.333s85.333-38.205 85.333-85.333v0z" />
<glyph unicode="&#xe909;" glyph-name="Carret-down" d="M256 554.667c0 0.073-0.001 0.16-0.001 0.247 0 11.721 4.726 22.338 12.377 30.049l-0.003-0.003c7.733 7.795 18.45 12.621 30.293 12.621s22.56-4.826 30.291-12.618l0.003-0.003 183.040-183.467 183.040 183.467c7.753 7.753 18.463 12.548 30.293 12.548 23.661 0 42.841-19.181 42.841-42.841 0-11.83-4.795-22.541-12.548-30.293l-213.333-213.333c-7.733-7.795-18.45-12.621-30.293-12.621s-22.56 4.826-30.291 12.618l-213.336 213.336c-7.648 7.709-12.374 18.326-12.374 30.047 0 0.087 0 0.173 0.001 0.26v-0.013z" />
<glyph unicode="&#xe90a;" glyph-name="Carret-left" d="M618.667 704c0.073 0 0.16 0.001 0.247 0.001 11.721 0 22.338-4.726 30.049-12.377l-0.003 0.003c7.795-7.733 12.621-18.45 12.621-30.293s-4.826-22.56-12.618-30.291l-0.003-0.003-183.467-183.040 183.467-183.040c7.753-7.753 12.548-18.463 12.548-30.293 0-23.661-19.181-42.841-42.841-42.841-11.83 0-22.541 4.795-30.293 12.548l-213.333 213.333c-7.795 7.733-12.621 18.45-12.621 30.293s4.826 22.56 12.618 30.291l213.336 213.336c7.709 7.648 18.326 12.374 30.047 12.374 0.087 0 0.173 0 0.26-0.001h-0.013z" />
<glyph unicode="&#xe90b;" glyph-name="Carret-right" d="M405.333 192c-0.073 0-0.16-0.001-0.247-0.001-11.721 0-22.338 4.726-30.049 12.377l0.003-0.003c-7.795 7.733-12.621 18.45-12.621 30.293s4.826 22.56 12.618 30.291l0.003 0.003 183.467 183.040-183.467 183.040c-7.753 7.753-12.548 18.463-12.548 30.293 0 23.661 19.181 42.841 42.841 42.841 11.83 0 22.541-4.795 30.293-12.548l213.333-213.333c7.795-7.733 12.621-18.45 12.621-30.293s-4.826-22.56-12.618-30.291l-213.336-213.336c-7.709-7.648-18.326-12.374-30.047-12.374-0.087 0-0.173 0-0.26 0.001h0.013z" />
<glyph unicode="&#xe90c;" glyph-name="Carret-up" d="M768 341.333c0-0.073 0.001-0.16 0.001-0.247 0-11.721-4.726-22.338-12.377-30.049l0.003 0.003c-7.733-7.795-18.45-12.621-30.293-12.621s-22.56 4.826-30.291 12.618l-0.003 0.003-183.040 183.467-183.040-183.467c-7.753-7.753-18.463-12.548-30.293-12.548-23.661 0-42.841 19.181-42.841 42.841 0 11.83 4.795 22.541 12.548 30.293l213.333 213.333c7.733 7.795 18.45 12.621 30.293 12.621s22.56-4.826 30.291-12.618l213.336-213.336c7.648-7.709 12.374-18.326 12.374-30.047 0-0.087 0-0.173-0.001-0.26v0.013z" />
<glyph unicode="&#xe90d;" glyph-name="Change" d="M819.2 490.667c-2.766 0.638-5.942 1.004-9.203 1.004-20.903 0-38.295-15.032-41.957-34.875l-0.040-0.263c0-7.253-40.533-179.2-256-179.2h-238.507l98.133 97.707c7.753 7.753 12.548 18.463 12.548 30.293 0 23.661-19.181 42.841-42.841 42.841-11.83 0-22.541-4.795-30.293-12.548l-170.667-170.667c-3.773-3.937-6.808-8.616-8.859-13.791l-0.101-0.289c-2.024-4.793-3.201-10.366-3.201-16.213s1.176-11.42 3.305-16.495l-0.105 0.281c2.152-5.464 5.187-10.143 8.974-14.095l-0.014 0.015 170.667-170.667c7.733-7.795 18.45-12.621 30.293-12.621s22.56 4.826 30.291 12.618l0.003 0.003c7.795 7.733 12.621 18.45 12.621 30.293s-4.826 22.56-12.618 30.291l-0.003 0.003-98.133 97.707h238.507c229.973 0 323.413 162.133 341.333 247.467 0.638 2.766 1.004 5.942 1.004 9.203 0 20.903-15.032 38.295-34.875 41.957l-0.263 0.040zM162.133 405.333h8.533c0.256-0.006 0.558-0.009 0.86-0.009 20.547 0 37.701 14.523 41.758 33.864l0.049 0.278c0 8.533 39.68 179.2 256 179.2h238.507l-98.133-97.707c-7.795-7.733-12.621-18.45-12.621-30.293s4.826-22.56 12.618-30.291l0.003-0.003c7.733-7.795 18.45-12.621 30.293-12.621s22.56 4.826 30.291 12.618l170.67 170.67c3.773 3.937 6.808 8.616 8.859 13.791l0.101 0.289c2.024 4.793 3.201 10.366 3.201 16.213s-1.176 11.42-3.305 16.495l0.105-0.281c-2.152 5.464-5.187 10.143-8.974 14.095l0.014-0.015-170.667 170.667c-7.753 7.753-18.463 12.548-30.293 12.548-23.661 0-42.841-19.181-42.841-42.841 0-11.83 4.795-22.541 12.548-30.293v0l98.133-97.707h-238.507c-229.973 0-323.413-162.133-341.333-247.467-0.638-2.766-1.004-5.942-1.004-9.203 0-20.903 15.032-38.295 34.875-41.957l0.263-0.040z" />
<glyph unicode="&#xe90e;" glyph-name="Checkmark" d="M469.333 274.773c-0.001 0-0.002 0-0.003 0-10.613 0-20.321 3.875-27.787 10.288l0.057-0.048-170.667 144.64c-9.166 7.873-14.935 19.476-14.935 32.427 0 23.565 19.103 42.669 42.669 42.669 10.615 0 20.324-3.876 27.79-10.29l-0.057 0.048 139.093-118.613 229.547 232.533c7.736 7.789 18.452 12.611 30.293 12.611 23.577 0 42.691-19.113 42.691-42.691 0-11.736-4.735-22.365-12.4-30.082l0.002 0.002-256-260.693c-7.709-7.861-18.426-12.749-30.284-12.8h-0.010z" />
<glyph unicode="&#xe90f;" glyph-name="Clock" d="M512 789.333c188.513 0 341.333-152.82 341.333-341.333s-152.82-341.333-341.333-341.333c-188.513 0-341.333 152.82-341.333 341.333v0c0 188.513 152.82 341.333 341.333 341.333v0zM512 874.667c-235.641 0-426.667-191.025-426.667-426.667s191.025-426.667 426.667-426.667c235.641 0 426.667 191.025 426.667 426.667v0c0 235.641-191.025 426.667-426.667 426.667v0zM682.667 495.36h-128v170.667c0 23.564-19.103 42.667-42.667 42.667s-42.667-19.103-42.667-42.667v0-213.333c0-23.564 19.103-42.667 42.667-42.667v0h170.667c23.564 0 42.667 19.103 42.667 42.667s-19.103 42.667-42.667 42.667v0z" />
<glyph unicode="&#xe910;" glyph-name="Close" d="M512 874.667c-235.641 0-426.667-191.025-426.667-426.667s191.025-426.667 426.667-426.667c235.641 0 426.667 191.025 426.667 426.667v0c0 235.641-191.025 426.667-426.667 426.667v0zM170.667 448c0 188.513 152.82 341.333 341.333 341.333v0c0.125 0 0.272 0 0.42 0 79.067 0 151.792-27.155 209.357-72.648l-0.71 0.541-478.293-478.293c-44.951 56.854-72.107 129.579-72.107 208.646 0 0.148 0 0.295 0 0.443v-0.023zM512 106.667c-0.125 0-0.272 0-0.42 0-79.067 0-151.792 27.155-209.357 72.648l0.71-0.541 478.293 478.293c44.951-56.854 72.107-129.579 72.107-208.646 0-0.148 0-0.295 0-0.443v0.023c0-188.513-152.82-341.333-341.333-341.333v0z" />
<glyph unicode="&#xe911;" glyph-name="Copy" d="M810.667 832h-469.333c-47.128 0-85.333-38.205-85.333-85.333v0-85.333h-42.667c-47.128 0-85.333-38.205-85.333-85.333v0-426.667c0-47.128 38.205-85.333 85.333-85.333v0h469.333c47.128 0 85.333 38.205 85.333 85.333v0 85.333h42.667c47.128 0 85.333 38.205 85.333 85.333v0 426.667c0 47.128-38.205 85.333-85.333 85.333v0zM682.667 149.333h-469.333v426.667h469.333zM810.667 320h-42.667v256c0 47.128-38.205 85.333-85.333 85.333v0h-341.333v85.333h469.333z" />
<glyph unicode="&#xe912;" glyph-name="Cross" d="M572.16 448l183.467 183.040c7.753 7.753 12.548 18.463 12.548 30.293 0 23.661-19.181 42.841-42.841 42.841-11.83 0-22.541-4.795-30.293-12.548v0l-183.040-183.467-183.040 183.467c-7.753 7.753-18.463 12.548-30.293 12.548-23.661 0-42.841-19.181-42.841-42.841 0-11.83 4.795-22.541 12.548-30.293v0l183.467-183.040-183.467-183.040c-7.795-7.733-12.621-18.45-12.621-30.293s4.826-22.56 12.618-30.291l0.003-0.003c7.733-7.795 18.45-12.621 30.293-12.621s22.56 4.826 30.291 12.618l0.003 0.003 183.040 183.467 183.040-183.467c7.733-7.795 18.45-12.621 30.293-12.621s22.56 4.826 30.291 12.618l0.003 0.003c7.795 7.733 12.621 18.45 12.621 30.293s-4.826 22.56-12.618 30.291l-0.003 0.003z" />
<glyph unicode="&#xe913;" glyph-name="CV" d="M768 789.333v-682.667h-512v682.667h512zM256 874.667c-47.128 0-85.333-38.205-85.333-85.333v0-682.667c0-47.128 38.205-85.333 85.333-85.333v0h512c47.128 0 85.333 38.205 85.333 85.333v0 682.667c0 47.128-38.205 85.333-85.333 85.333v0zM384 277.333h256c23.564 0 42.667-19.103 42.667-42.667s-19.103-42.667-42.667-42.667h-256c-23.564 0-42.667 19.103-42.667 42.667s19.103 42.667 42.667 42.667zM507.733 618.667c23.564 0 42.667-19.103 42.667-42.667s-19.103-42.667-42.667-42.667c-23.564 0-42.667 19.103-42.667 42.667v0c0 23.564 19.103 42.667 42.667 42.667v0zM512 490.667c47.128 0 85.333-38.205 85.333-85.333v0h-170.667c0 47.128 38.205 85.333 85.333 85.333v0zM507.733 704c-0.042 0-0.092 0-0.143 0-70.692 0-128-57.308-128-128 0-17.867 3.661-34.88 10.273-50.328l-0.318 0.834c-29.834-31.54-48.185-74.211-48.213-121.168v-42.673c0-23.564 19.103-42.667 42.667-42.667v0h256c23.564 0 42.667 19.103 42.667 42.667v0 42.667c0.005 0.475 0.007 1.036 0.007 1.598 0 49.703-20.779 94.552-54.124 126.336l-0.070 0.066c4.852 12.678 7.668 27.342 7.68 42.661v0.005c0 70.692-57.308 128-128 128v0z" />
<glyph unicode="&#xe914;" glyph-name="Data" d="M512 874.667c-170.667 0-341.333-58.453-341.333-170.667v-520.107c0-106.667 170.667-162.56 341.333-162.56s341.333 55.893 341.333 162.56v520.107c0 112.213-170.667 170.667-341.333 170.667zM512 789.333c170.667 0 256-61.867 256-85.333s-89.6-85.333-256-85.333-256 61.867-256 85.333 85.333 85.333 256 85.333zM256 357.547v55.893c70.245-32.231 152.394-51.022 238.933-51.022 6.002 0 11.983 0.090 17.941 0.27l-0.873-0.021c4.551-0.127 9.906-0.2 15.279-0.2 87.228 0 169.997 19.092 244.356 53.326l-3.635-1.5v-58.027c0-23.467-89.6-78.933-256-78.933s-256 55.467-256 78.080c-0.047 0.32-0.074 0.69-0.074 1.067s0.027 0.746 0.079 1.108l-0.005-0.041zM512 448c-166.4 0-256 55.040-256 77.227-0.044 0.384-0.069 0.829-0.069 1.28s0.025 0.896 0.074 1.334l-0.005-0.054v59.733c70.544-34.321 153.465-54.385 241.073-54.385 5.249 0 10.481 0.072 15.696 0.215l-0.768-0.017c4.446-0.126 9.678-0.198 14.927-0.198 87.607 0 170.528 20.064 244.419 55.847l-3.346-1.462v-62.72c0-22.613-89.6-76.8-256-76.8zM512 106.667c-166.4 0-256 55.040-256 77.227v60.587c71.202-33.24 154.589-52.636 242.506-52.636 4.745 0 9.477 0.056 14.195 0.169l-0.701-0.013c4.551-0.127 9.906-0.2 15.279-0.2 87.228 0 169.997 19.092 244.356 53.326l-3.635-1.5v-60.587c0-21.333-89.6-76.373-256-76.373z" />
<glyph unicode="&#xe915;" glyph-name="email" d="M864 746.667v2.56l-10.667-2.56h-682.667c-1.665 0.2-3.592 0.315-5.547 0.315s-3.882-0.114-5.777-0.336l0.23 0.022h-4.693c-39.863-7.698-69.559-42.313-69.559-83.863 0-0.517 0.005-1.033 0.014-1.548l-0.001 0.077v-469.333c0-47.128 38.205-85.333 85.333-85.333v0h682.667c47.128 0 85.333 38.205 85.333 85.333v0 469.333c0.002 0.199 0.003 0.434 0.003 0.669 0 43.369-32.353 79.182-74.241 84.619l-0.429 0.045zM772.267 661.333l-260.267-250.453-263.68 250.453zM170.667 192v422.4l288.853-273.92c14.139-11.939 32.569-19.196 52.693-19.196s38.555 7.257 52.815 19.296l-0.122-0.1 288.427 278.187v-426.667z" />
<glyph unicode="&#xe916;" glyph-name="Eye-off" d="M512 298.667c82.475 0 149.333 66.859 149.333 149.333v0c0 3.413 0 6.827 0 10.24l-192-153.173c12.76-4.040 27.436-6.378 42.656-6.4h0.011zM256 351.573c-28.45 28.724-54.161 60.263-76.645 94.129l-1.435 2.298c42.667 68.693 154.027 209.067 324.693 213.333 1.943 0.044 4.232 0.069 6.527 0.069 38.564 0 75.478-7.067 109.517-19.976l-2.123 0.707 75.093 61.867c-52.31 27-114.17 42.83-179.727 42.83-4.015 0-8.017-0.059-12.004-0.177l0.584 0.014c-235.947-5.973-372.48-213.333-409.6-277.333-3.594-6.12-5.716-13.479-5.716-21.333s2.123-15.214 5.825-21.535l-0.109 0.201c29.27-48.504 62.145-90.474 99.451-128.038l-0.037 0.038zM933.12 469.333c-29.27 48.504-62.145 90.474-99.451 128.038l0.037-0.038-65.707-52.907c28.45-28.724 54.161-60.263 76.645-94.129l1.435-2.298c-42.667-68.693-154.027-209.067-324.693-213.333-1.577-0.028-3.437-0.044-5.3-0.044-38.985 0-76.321 7.056-110.803 19.96l2.183-0.716-75.093-61.867c52.31-26.843 114.121-42.602 179.606-42.667h10.687c235.947 5.973 372.907 213.333 409.6 277.333 3.864 6.294 6.153 13.916 6.153 22.072 0 7.556-1.964 14.654-5.41 20.81l0.111-0.216zM512 597.333c-82.475 0-149.333-66.859-149.333-149.333v0c0-3.413 0-6.827 0-10.24l192 153.173c-12.76 4.040-27.436 6.378-42.656 6.4h-0.011zM187.307 134.4c-0.001 0-0.002 0-0.003 0-12.949 0-24.551 5.769-32.376 14.877l-0.048 0.057c-6.259 7.376-10.064 17.005-10.064 27.523 0 13.065 5.872 24.759 15.122 32.585l0.063 0.052 650.667 542.293c7.346 6.139 16.891 9.867 27.307 9.867 23.594 0 42.72-19.126 42.72-42.72 0-13.178-5.967-24.962-15.346-32.798l-0.068-0.055-651.947-541.867c-7.027-5.863-16.073-9.52-25.964-9.812l-0.062-0.001z" />
<glyph unicode="&#xe917;" glyph-name="Eye-open" d="M512 384c-35.346 0-64 28.654-64 64s28.654 64 64 64c35.346 0 64-28.654 64-64v0c0-35.346-28.654-64-64-64v0zM512 597.333c-82.475 0-149.333-66.859-149.333-149.333s66.859-149.333 149.333-149.333c82.475 0 149.333 66.859 149.333 149.333v0c0 82.475-66.859 149.333-149.333 149.333v0zM521.387 234.667c-183.893-4.267-303.787 153.173-341.333 213.333 42.667 68.693 154.027 209.067 324.693 213.333 183.040 4.693 303.36-153.173 341.333-213.333-43.947-68.693-154.027-209.067-324.693-213.333zM933.12 469.333c-27.307 47.36-177.493 285.013-432.64 277.333-235.947-5.973-372.48-213.333-409.6-277.333-3.594-6.12-5.716-13.479-5.716-21.333s2.123-15.214 5.825-21.535l-0.109 0.201c26.88-46.507 170.667-277.333 421.973-277.333h10.667c235.947 5.973 372.907 213.333 409.6 277.333 3.594 6.12 5.716 13.479 5.716 21.333s-2.123 15.214-5.825 21.535l0.109-0.201z" />
<glyph unicode="&#xe918;" glyph-name="Flash" d="M293.12 405.333h218.88c12.513-0.031 23.756-5.443 31.541-14.043l0.033-0.037c6.783-7.524 10.933-17.538 10.933-28.52 0-1.677-0.097-3.331-0.285-4.958l0.019 0.198-18.773-168.533 195.413 301.227h-218.88c-11.947 0-23.467-3.413-31.573 5.547-6.895 10.103-11.010 22.581-11.010 36.021 0 2.341 0.125 4.652 0.368 6.929l-0.025-0.283 19.2 168.533zM474.027-21.333c-5.207 0.006-10.192 0.944-14.802 2.656l0.295-0.096c-16.477 6.158-27.997 21.767-27.997 40.065 0 1.668 0.096 3.314 0.282 4.932l-0.018-0.197 32.853 293.973h-251.307c-0.019 0-0.042 0-0.064 0-23.564 0-42.667 19.103-42.667 42.667 0 8.917 2.735 17.194 7.412 24.040l-0.095-0.147 336.64 512c7.778 11.395 20.703 18.777 35.352 18.777 5.227 0 10.235-0.94 14.863-2.66l-0.295 0.096c16.382-6.207 27.817-21.768 27.817-39.999 0-0.939-0.030-1.87-0.090-2.793l0.007 0.126-32.853-296.107h251.307c0.019 0 0.042 0 0.064 0 23.564 0 42.667-19.103 42.667-42.667 0-8.917-2.735-17.194-7.412-24.040l0.095 0.147-336.64-512c-7.778-11.392-20.701-18.773-35.349-18.773-0.023 0-0.045 0-0.068 0h0.003z" />
<glyph unicode="&#xe919;" glyph-name="Funnel" d="M464.213 215.040l85.333-65.28v194.133c0.258 6.918 2.124 13.346 5.231 18.994l-0.111-0.221 183.467 341.333h-454.827l176.213-341.333c2.958-5.655 4.694-12.352 4.694-19.455 0-0.060 0-0.121 0-0.181v0.009zM592.213 21.333c-9.653 0-18.558 3.206-25.707 8.611l0.107-0.078-170.667 130.133c-10.163 7.877-16.641 20.087-16.641 33.81 0 0.114 0 0.227 0.001 0.341v-0.017 139.52l-203.947 393.387c-3.013 5.699-4.782 12.456-4.782 19.627 0 23.564 19.103 42.667 42.667 42.667 0.031 0 0.062 0 0.094 0h597.328c23.515-0.065 42.553-19.142 42.553-42.667 0-7.34-1.854-14.247-5.118-20.279l0.112 0.226-213.333-393.387v-269.227c0.001-0.088 0.001-0.193 0.001-0.297 0-16.562-9.437-30.921-23.227-37.991l-0.24-0.112c-5.359-2.655-11.665-4.226-18.333-4.267h-0.014z" />
<glyph unicode="&#xe91a;" glyph-name="Glove" d="M512 874.667c-235.641 0-426.667-191.025-426.667-426.667s191.025-426.667 426.667-426.667c235.641 0 426.667 191.025 426.667 426.667v0c0 235.641-191.025 426.667-426.667 426.667v0zM834.133 336.64l-42.667 33.28c-7.279 5.958-16.68 9.569-26.925 9.569-3.311 0-6.534-0.377-9.629-1.091l0.287 0.056-29.867-7.253-42.667 22.613v54.187l12.373 4.267 47.36-32c4.845-3.338 10.602-5.737 16.815-6.791l0.252-0.035 76.8-11.947h13.653c-3.325-24.313-8.847-46.198-16.494-67.060l0.707 2.206zM788.907 646.827l-23.893-12.373-90.453 18.347 39.68 31.147c8.172 6.429 13.899 15.646 15.75 26.197l0.037 0.256c22.165-18.698 41.546-39.57 58.181-62.559l0.699-1.014zM369.067 757.333l12.373-14.933c5.784-6.664 13.524-11.492 22.323-13.595l0.29-0.059 10.667-2.56-22.187-17.92c-3.211-2.399-6.012-5.065-8.468-8.026l-0.065-0.080-27.733-38.827-57.6-37.12-42.667-11.093-28.16 22.187c35.010 52.757 82.845 94.43 139.156 121.143l2.070 0.884zM401.92 277.333v-16.213l-23.040-19.2-15.36 104.96c-2.312 14.554-11.708 26.493-24.48 32.318l-0.267 0.109-42.667 20.053-4.267 26.453 19.2 31.573 17.067-7.253 32-32c6.19-6.557 14.403-11.145 23.638-12.763l0.256-0.037 20.48-2.56 15.36-29.44c7.257-13.795 21.491-23.040 37.885-23.040 0.031 0 0.062 0 0.094 0h2.555l-42.667-42.667c-8.982-7.284-14.919-18.019-15.779-30.158l-0.008-0.136zM170.667 448c0.040 38.949 6.598 76.353 18.641 111.198l-0.721-2.398 26.88-20.907 24.32-29.013-31.147-49.92c-3.834-6.54-6.098-14.403-6.098-22.794 0-2.497 0.2-4.946 0.586-7.334l-0.035 0.262 10.24-64.427c2.584-14.21 11.911-25.792 24.478-31.465l0.269-0.109 42.667-20.053 17.92-112.213c0.857-5.922 2.81-11.249 5.654-15.979l-0.107 0.193 6.4-10.24c-85.148 62.734-139.813 162.569-139.947 275.179v0.021zM512 106.667c-27.884 0.050-54.944 3.47-80.829 9.873l2.322-0.486 8.107 66.133 30.293 25.6c9.415 7.881 15.36 19.638 15.36 32.784 0 0.024 0 0.049 0 0.073v-0.004 17.493l42.667 42.667c6.423 5.904 10.882 13.854 12.343 22.811l0.031 0.229 12.373 62.293c0.47 2.376 0.738 5.108 0.738 7.903 0 10.317-3.662 19.778-9.756 27.156l0.058-0.072c-7.881 9.415-19.638 15.36-32.784 15.36-0.024 0-0.049 0-0.073 0h-29.009l-14.507 26.88c-6.59 12.381-18.775 21.029-33.089 22.596l-0.191 0.017-27.733 4.693-27.733 27.307c-3.714 4.030-8.274 7.221-13.404 9.298l-0.249 0.089-42.667 17.067c4.858 1.234 9.125 3.14 12.964 5.647l-0.164-0.1 72.107 43.093c4.491 3.078 8.302 6.754 11.43 10.966l0.090 0.127 29.867 42.667 35.84 28.587c6.44 5.107 11.323 11.917 13.991 19.753l0.089 0.3 15.787 47.787c1.323 3.936 2.086 8.468 2.086 13.179 0 7.701-2.040 14.926-5.61 21.163l0.11-0.209c-2.677 5.095-6.263 9.362-10.581 12.735l-0.086 0.065h9.813c0.095 0 0.209 0 0.322 0 55.639 0 108.109-13.567 154.283-37.573l-1.858 0.879h-2.987l-61.013-49.493c-6.792-5.376-11.864-12.656-14.427-21.031l-0.080-0.302-14.933-47.787c-1.238-3.814-1.952-8.203-1.952-12.759 0-20.632 14.644-37.843 34.105-41.807l0.274-0.047 159.147-32.427h8.533c7.017 0.043 13.619 1.774 19.436 4.805l-0.236-0.112 39.253 20.053c9.974-24.853 17.338-53.718 20.763-83.779l0.144-1.554h-4.693l-64 10.24-56.747 39.253c-6.708 4.601-15.003 7.348-23.939 7.348-4.87 0-9.549-0.816-13.908-2.318l0.3 0.090-61.44-20.907c-16.913-5.836-28.871-21.556-29.013-40.090v-112.23c0-0.035 0-0.076 0-0.116 0-16.054 8.866-30.037 21.969-37.319l0.218-0.111 78.080-42.667c5.799-3.143 12.696-4.991 20.024-4.991 3.492 0 6.886 0.42 10.134 1.211l-0.292-0.060 27.733 5.973 16.213-12.8v-32c0.141-5.702 1.224-11.108 3.099-16.128l-0.112 0.342c-63.008-75.513-157.124-123.235-262.388-123.307h-0.012z" />
<glyph unicode="&#xe91b;" glyph-name="Home" d="M924.16 522.667l-384 341.333c-7.473 6.59-17.347 10.613-28.16 10.613s-20.687-4.023-28.207-10.653l0.047 0.040-384-341.333c-8.849-7.854-14.397-19.258-14.397-31.957 0-5.541 1.056-10.834 2.978-15.691l-0.101 0.289c6.326-16.072 21.691-27.252 39.673-27.307h42.674v-384c0-23.564 19.103-42.667 42.667-42.667v0h170.667c23.564 0 42.667 19.103 42.667 42.667v0 170.667c0 7.253 6.827 42.667 85.333 42.667s85.333-36.693 85.333-42.667v-170.667c0-23.564 19.103-42.667 42.667-42.667v0h170.667c23.564 0 42.667 19.103 42.667 42.667v0 384h42.667c17.989 0.055 33.354 11.234 39.579 27.017l0.101 0.289c1.821 4.568 2.877 9.862 2.877 15.403 0 12.7-5.548 24.103-14.353 31.919l-0.044 0.038zM682.667 106.667v128c0 42.667-35.84 128-170.667 128s-170.667-85.333-170.667-128v-128h-85.333v440.747l256 227.413 256-227.413v-440.747z" />
<glyph unicode="&#xe91c;" glyph-name="Image" d="M682.667 533.333c23.564 0 42.667-19.103 42.667-42.667s-19.103-42.667-42.667-42.667c-23.564 0-42.667 19.103-42.667 42.667v0c0 23.564 19.103 42.667 42.667 42.667v0zM682.667 618.667c-70.692 0-128-57.308-128-128s57.308-128 128-128c70.692 0 128 57.308 128 128v0c0 70.692-57.308 128-128 128v0zM853.333 746.667h-682.667c-47.128 0-85.333-38.205-85.333-85.333v0-469.333c0-47.128 38.205-85.333 85.333-85.333v0h682.667c47.128 0 85.333 38.205 85.333 85.333v0 469.333c0 47.128-38.205 85.333-85.333 85.333v0zM853.333 661.333v-423.253l-475.733 198.4c-9.72 4.175-21.034 6.603-32.914 6.603-16.207 0-31.358-4.518-44.264-12.363l0.378 0.213-130.133-78.080v308.48zM170.667 253.013l174.080 104.533 397.653-165.547h-571.733z" />
<glyph unicode="&#xe91d;" glyph-name="In" d="M861.867 799.573c-7.733 7.795-18.45 12.621-30.293 12.621s-22.56-4.826-30.291-12.618l-324.27-324.27v138.24c0 23.564-19.103 42.667-42.667 42.667s-42.667-19.103-42.667-42.667v0-241.067c0-23.564 19.103-42.667 42.667-42.667v0h241.493c23.564 0 42.667 19.103 42.667 42.667s-19.103 42.667-42.667 42.667v0h-138.667l324.693 324.267c7.668 7.712 12.407 18.343 12.407 30.080s-4.74 22.368-12.409 30.082l0.002-0.002zM853.333 405.333c0 23.564-19.103 42.667-42.667 42.667s-42.667-19.103-42.667-42.667v0-256h-554.667v554.667h256c23.564 0 42.667 19.103 42.667 42.667s-19.103 42.667-42.667 42.667v0h-298.667c-23.564 0-42.667-19.103-42.667-42.667v0-640c0-23.564 19.103-42.667 42.667-42.667v0h640c23.564 0 42.667 19.103 42.667 42.667v0 0 0z" />
<glyph unicode="&#xe91e;" glyph-name="Link" d="M449.28 750.933c48.039 49.842 115.38 80.797 189.95 80.797 59.098 0 113.655-19.442 157.623-52.279l-0.693 0.495c61.086-47.753 99.985-121.446 99.985-204.224 0-71.155-28.742-135.596-75.25-182.348l0.011 0.011-61.013-60.587c-7.733-7.795-18.45-12.621-30.293-12.621s-22.56 4.826-30.291 12.618l-0.003 0.003c-7.795 7.733-12.621 18.45-12.621 30.293s4.826 22.56 12.618 30.291l0.003 0.003 60.587 61.013c31.54 30.989 51.086 74.096 51.086 121.768 0 53.114-24.263 100.562-62.311 131.863l-0.295 0.236c-29.714 23.086-67.545 37.011-108.629 37.011-50.101 0-95.366-20.709-127.701-54.033l-0.043-0.045-55.467-54.613c-7.733-7.795-18.45-12.621-30.293-12.621s-22.56 4.826-30.291 12.618l-0.003 0.003c-6.977 8.087-11.226 18.698-11.226 30.301 0 15.108 7.204 28.534 18.365 37.029l0.114 0.083zM567.040 563.627l-170.667-170.667c-7.795-7.733-12.621-18.45-12.621-30.293s4.826-22.56 12.618-30.291l0.003-0.003c7.733-7.795 18.45-12.621 30.293-12.621s22.56 4.826 30.291 12.618l170.67 170.67c7.753 7.753 12.548 18.463 12.548 30.293 0 23.661-19.181 42.841-42.841 42.841-11.83 0-22.541-4.795-30.293-12.548v0zM567.040 260.267l-55.040-54.187c-32.605-33.569-78.169-54.399-128.598-54.399-41.411 0-79.541 14.047-109.886 37.635l0.404-0.302c-38.204 31.535-62.369 78.898-62.369 131.904 0 47.555 19.45 90.568 50.83 121.517l60.606 60.606c7.795 7.733 12.621 18.45 12.621 30.293s-4.826 22.56-12.618 30.291l-0.003 0.003c-7.733 7.795-18.45 12.621-30.293 12.621s-22.56-4.826-30.291-12.618l-0.003-0.003-54.187-54.613c-49.276-47.761-79.86-114.56-79.86-188.502 0-58.658 19.247-112.82 51.77-156.517l-0.497 0.698c47.74-61.506 121.683-100.707 204.782-100.707 71.089 0 135.477 28.689 182.218 75.121l60.999 60.573c7.716 7.769 12.486 18.474 12.486 30.293 0 23.744-19.248 42.992-42.992 42.992-11.925 0-22.716-4.855-30.504-12.697l-0.002-0.002z" />
<glyph unicode="&#xe91f;" glyph-name="Location-pin" d="M512 490.667c-35.346 0-64 28.654-64 64s28.654 64 64 64c35.346 0 64-28.654 64-64v0c0-35.346-28.654-64-64-64v0zM512 704c-82.475 0-149.333-66.859-149.333-149.333s66.859-149.333 149.333-149.333c82.475 0 149.333 66.859 149.333 149.333v0c0 82.475-66.859 149.333-149.333 149.333v0zM512 121.6c-71.68 67.84-256 256-256 415.147 0 141.385 114.615 256 256 256s256-114.615 256-256v0c0-157.44-184.32-347.307-256-415.147zM512 874.667c-0.005 0-0.011 0-0.017 0-187.313 0-339.386-150.88-341.315-337.737l-0.001-0.183c0-233.813 300.8-494.080 313.6-505.173 7.409-6.367 17.119-10.243 27.733-10.243s20.324 3.876 27.79 10.29l-0.057-0.048c14.933 11.093 313.6 271.36 313.6 505.173-1.93 187.040-154.003 337.92-341.316 337.92-0.006 0-0.012 0-0.018 0h0.001z" />
<glyph unicode="&#xe920;" glyph-name="Lock" d="M512 874.667c-94.569-1.435-170.68-78.433-170.68-173.208 0-0.757 0.005-1.512 0.015-2.267l-0.001 0.114v-80.64h-42.667c-70.692 0-128-57.308-128-128v0-341.333c0-70.692 57.308-128 128-128v0h426.667c70.692 0 128 57.308 128 128v0 341.333c0 70.692-57.308 128-128 128v0h-42.667v80.64c0.009 0.64 0.013 1.395 0.013 2.152 0 94.775-76.111 171.773-170.545 173.206l-0.135 0.002zM426.667 618.667v80.64c-0.017 0.646-0.027 1.407-0.027 2.17 0 47.651 37.92 86.446 85.23 87.854l0.13 0.003c47.44-1.411 85.36-40.205 85.36-87.857 0-0.763-0.010-1.524-0.029-2.282l0.002 0.112v-80.64zM298.667 106.667c-23.564 0-42.667 19.103-42.667 42.667v0 341.333c0 23.564 19.103 42.667 42.667 42.667v0h426.667c23.564 0 42.667-19.103 42.667-42.667v0-341.333c0-23.564-19.103-42.667-42.667-42.667v0zM512 448c-70.692 0-128-57.308-128-128s57.308-128 128-128c70.692 0 128 57.308 128 128v0c0 70.692-57.308 128-128 128v0zM512 277.333c-23.564 0-42.667 19.103-42.667 42.667s19.103 42.667 42.667 42.667c23.564 0 42.667-19.103 42.667-42.667v0c0-23.564-19.103-42.667-42.667-42.667v0z" />
<glyph unicode="&#xe921;" glyph-name="Magnet" d="M768 832h-85.333c-47.128 0-85.333-38.205-85.333-85.333v0-341.333s0-128-85.333-128-85.333 128-85.333 128v341.333c0 47.128-38.205 85.333-85.333 85.333v0h-85.333c-47.128 0-85.333-38.205-85.333-85.333v0-384s0-341.333 341.333-341.333 341.333 341.333 341.333 341.333v384c0 47.128-38.205 85.333-85.333 85.333v0zM768 746.667v-85.333h-85.333v85.333zM341.333 746.667v-85.333h-85.333v85.333zM512 106.667c-240.213 0-256 220.587-256 256v213.333h85.333v-170.667c0-128 59.733-213.333 170.667-213.333s170.667 85.333 170.667 213.333v170.667h85.333v-213.333c0-35.413-15.787-256-256-256z" />
<glyph unicode="&#xe922;" glyph-name="Metric" d="M831.573 704c0 0-0.001 0-0.001 0-58.675 0-106.24-47.565-106.24-106.24 0-0.15 0-0.3 0.001-0.45v0.023c0-0.036 0-0.080 0-0.123 0-16.443 3.941-31.966 10.931-45.675l-0.264 0.571-87.893-109.653c-8.879 3.035-19.117 4.891-29.757 5.118l-0.11 0.002c-15.485-0.082-30.143-3.533-43.308-9.655l0.642 0.268-71.253 79.787c3.776 10.429 5.96 22.465 5.96 35.011 0 58.439-47.374 105.813-105.813 105.813-57.847 0-104.853-46.42-105.799-104.042l-0.001-0.089c0.427-15.545 3.998-30.151 10.097-43.351l-0.284 0.685-87.893-111.36c-8.407 2.608-18.082 4.16-28.104 4.266h-0.056c-0.489 0.008-1.066 0.013-1.645 0.013-59.617 0-107.947-48.329-107.947-107.947s48.329-107.947 107.947-107.947c59.617 0 107.947 48.329 107.947 107.947 0 18.072-4.441 35.108-12.292 50.074l0.283-0.593 85.333 107.52c9.503-3.233 20.465-5.24 31.851-5.544l0.149-0.003c14.195 0.061 27.679 3.037 39.906 8.36l-0.653-0.253 73.813-82.347c-3.78-9.757-5.971-21.049-5.973-32.852v-0.001c0-58.91 47.756-106.667 106.667-106.667s106.667 47.756 106.667 106.667v0c-0.204 16.781-4.117 32.599-10.954 46.74l0.288-0.66 85.333 108.8c8.364-2.376 17.969-3.743 27.894-3.743 58.439 0 105.813 47.374 105.813 105.813 0 56.845-44.825 103.221-101.057 105.708l-0.224 0.008zM404.907 576c11.539-0.010 20.889-9.366 20.889-20.907 0-11.546-9.36-20.907-20.907-20.907-11.246 0-20.419 8.88-20.888 20.011l-0.001 0.042c-0.012 0.26-0.018 0.565-0.018 0.872 0 11.546 9.36 20.907 20.907 20.907 0.307 0 0.611-0.007 0.915-0.020l-0.043 0.001zM191.573 277.333c-11.782 0-21.333 9.551-21.333 21.333s9.551 21.333 21.333 21.333v0c11.782 0 21.333-9.551 21.333-21.333s-9.551-21.333-21.333-21.333v0zM618.24 320c-11.546 0-20.907 9.36-20.907 20.907s9.36 20.907 20.907 20.907c11.546 0 20.907-9.36 20.907-20.907v0c0-0.005 0-0.011 0-0.017 0-11.246-8.88-20.419-20.011-20.888l-0.042-0.001zM831.573 576c-11.173 0.471-20.053 9.643-20.053 20.889 0 11.546 9.36 20.907 20.907 20.907 11.54 0 20.897-9.35 20.907-20.888v-0.001c0-11.546-9.36-20.907-20.907-20.907v0z" />
<glyph unicode="&#xe923;" glyph-name="Move" d="M469.333 640.427c0-35.346-28.654-64-64-64s-64 28.654-64 64c0 35.346 28.654 64 64 64s64-28.654 64-64zM682.667 640.427c0-35.346-28.654-64-64-64s-64 28.654-64 64c0 35.346 28.654 64 64 64s64-28.654 64-64zM469.333 427.093c0-35.346-28.654-64-64-64s-64 28.654-64 64c0 35.346 28.654 64 64 64s64-28.654 64-64zM682.667 427.093c0-35.346-28.654-64-64-64s-64 28.654-64 64c0 35.346 28.654 64 64 64s64-28.654 64-64zM469.333 213.76c0-35.346-28.654-64-64-64s-64 28.654-64 64c0 35.346 28.654 64 64 64s64-28.654 64-64zM682.667 213.76c0-35.346-28.654-64-64-64s-64 28.654-64 64c0 35.346 28.654 64 64 64s64-28.654 64-64z" />
<glyph unicode="&#xe924;" glyph-name="Notification" d="M512 874.667c-158.306-0.485-286.478-128.807-286.72-287.124v-199.276l-76.8-77.227c-12.777-12.616-20.691-30.132-20.691-49.496 0-38.41 31.137-69.547 69.547-69.547 0.224 0 0.448 0.001 0.672 0.003h143.326v-14.507c4.136-87.187 75.829-156.31 163.667-156.31 2.462 0 4.911 0.054 7.347 0.162l-0.347-0.012c2.089-0.095 4.538-0.15 7-0.15 87.838 0 159.531 69.122 163.653 155.94l0.014 0.37v14.507h143.36c38.476 0.223 69.581 31.465 69.581 69.972 0 19.119-7.668 36.447-20.096 49.077l0.009-0.009-76.8 77.227v190.293c0.019 1.259 0.031 2.744 0.031 4.232 0 145.999-106.896 267.031-246.692 289.099l-1.658 0.216c-11.424 1.63-24.619 2.56-38.030 2.56-0.13 0-0.26 0-0.39 0h0.020zM235.093 277.333l50.347 50.347c15.55 15.46 25.173 36.866 25.173 60.519 0 0.024 0 0.048 0 0.071v-0.004 199.253c0.050 60.487 26.703 114.738 68.888 151.694l0.232 0.199c34.727 30.986 80.787 49.923 131.27 49.923 0.35 0 0.701-0.001 1.051-0.003h-0.054c4.149 0.304 8.987 0.477 13.867 0.477s9.718-0.173 14.511-0.514l-0.644 0.037c99.34-16.574 174.126-101.893 174.126-204.68 0-1.543-0.017-3.081-0.050-4.616l0.004 0.229v-192c-0.001-0.147-0.001-0.32-0.001-0.493 0-23.442 9.452-44.676 24.754-60.099l-0.005 0.006 50.347-50.347zM512 106.667c-1.69-0.127-3.66-0.199-5.648-0.199-41.063 0-74.92 30.856-79.649 70.646l-0.037 0.38v14.507h170.667v-14.507c-4.766-40.17-38.622-71.026-79.685-71.026-1.987 0-3.958 0.072-5.909 0.214l0.261-0.015z" />
<glyph unicode="&#xe925;" glyph-name="Options" d="M298.667 832c-55.254-0.16-102.258-35.305-120.038-84.442l-0.282-0.891h-50.347c-23.564 0-42.667-19.103-42.667-42.667s19.103-42.667 42.667-42.667v0h50.347c18.382-49.611 65.296-84.33 120.32-84.33s101.938 34.719 120.032 83.444l0.288 0.886h477.013c23.564 0 42.667 19.103 42.667 42.667s-19.103 42.667-42.667 42.667v0h-477.013c-18.062 50.028-65.066 85.173-120.3 85.333h-0.020zM298.667 661.333c-23.564 0-42.667 19.103-42.667 42.667s19.103 42.667 42.667 42.667c23.564 0 42.667-19.103 42.667-42.667v0c0-23.564-19.103-42.667-42.667-42.667v0zM810.667 576c-55.254-0.16-102.258-35.305-120.038-84.442l-0.282-0.891h-562.347c-23.564 0-42.667-19.103-42.667-42.667s19.103-42.667 42.667-42.667v0h562.347c18.103-50.14 65.281-85.333 120.679-85.333 70.692 0 128 57.308 128 128s-57.308 128-128 128c-0.126 0-0.253 0-0.379-0.001h0.020zM810.667 405.333c-23.564 0-42.667 19.103-42.667 42.667s19.103 42.667 42.667 42.667c23.564 0 42.667-19.103 42.667-42.667v0c0-23.564-19.103-42.667-42.667-42.667v0zM469.333 320c-55.254-0.16-102.258-35.305-120.038-84.442l-0.282-0.891h-221.013c-23.564 0-42.667-19.103-42.667-42.667s19.103-42.667 42.667-42.667v0h221.013c18.382-49.611 65.296-84.33 120.32-84.33s101.938 34.719 120.032 83.444l0.288 0.886h306.347c23.564 0 42.667 19.103 42.667 42.667s-19.103 42.667-42.667 42.667v0h-306.347c-18.062 50.028-65.066 85.173-120.3 85.333h-0.020zM469.333 149.333c-23.564 0-42.667 19.103-42.667 42.667s19.103 42.667 42.667 42.667c23.564 0 42.667-19.103 42.667-42.667v0c0-23.564-19.103-42.667-42.667-42.667v0z" />
<glyph unicode="&#xe926;" glyph-name="Out" d="M853.333 835.413h-240.213c-23.564 0-42.667-19.103-42.667-42.667s19.103-42.667 42.667-42.667v0h138.667l-325.12-324.693c-7.668-7.712-12.407-18.343-12.407-30.080s4.74-22.368 12.409-30.082l-0.002 0.002c7.733-7.795 18.45-12.621 30.293-12.621s22.56 4.826 30.291 12.618l0.003 0.003 323.413 324.267v-138.24c0-23.564 19.103-42.667 42.667-42.667s42.667 19.103 42.667 42.667v0 241.493c0 23.564-19.103 42.667-42.667 42.667v0zM853.333 405.333c0 23.564-19.103 42.667-42.667 42.667s-42.667-19.103-42.667-42.667v0-256h-554.667v554.667h256c23.564 0 42.667 19.103 42.667 42.667s-19.103 42.667-42.667 42.667v0h-298.667c-23.564 0-42.667-19.103-42.667-42.667v0-640c0-23.564 19.103-42.667 42.667-42.667v0h640c23.564 0 42.667 19.103 42.667 42.667v0 0 0z" />
<glyph unicode="&#xe927;" glyph-name="Pencil" d="M916.053 755.627l-85.333 85.333c-15.402 15.209-36.577 24.603-59.947 24.603s-44.545-9.394-59.956-24.612l0.009 0.009-554.667-545.707c-9.142-9.41-16.286-20.814-20.712-33.493l-0.195-0.641-42.667-128c-2.49-7.649-3.926-16.45-3.926-25.587 0-23.271 9.315-44.366 24.419-59.76l-0.013 0.013c15.208-15.939 36.466-25.989 60.075-26.452l0.085-0.001c0.069 0 0.152 0 0.234 0 9.528 0 18.691 1.562 27.248 4.443l-0.602-0.176 128 42.667c12.795 4.496 23.759 11.339 32.885 20.084l-0.032-0.031 554.667 546.133c15.59 15.467 25.241 36.9 25.241 60.587s-9.651 45.12-25.236 60.581l-0.006 0.006zM301.227 149.333l-128-42.667 42.667 128 438.187 431.36 85.333-85.333zM800.427 640.427l-85.333 85.333 55.467 55.040 85.333-85.333z" />
<glyph unicode="&#xe928;" glyph-name="People" d="M938.667 296.533c-11.727 81.33-52.15 151.558-110.489 201.442l-0.445 0.371c16.672 21.401 26.731 48.668 26.731 78.285 0 10.833-1.346 21.352-3.879 31.399l0.189-0.884c-14.191 56.391-64.451 97.476-124.307 97.476-70.692 0-128-57.308-128-128 0-29.046 9.675-55.833 25.978-77.313l-0.231 0.317c-38.151-30.95-67.517-71.305-84.717-117.575l-0.616-1.891c-18.632 31.337-43.271 57.203-72.525 76.687l-0.861 0.54c29.824 30.695 48.213 72.64 48.213 118.879 0 94.257-76.41 170.667-170.667 170.667s-170.667-76.41-170.667-170.667c0-46.24 18.389-88.185 48.253-118.92l-0.040 0.041c-85.333-55.040-117.333-167.68-132.267-250.453-0.84-4.495-1.32-9.666-1.32-14.95 0-46.542 37.261-84.382 83.579-85.316l0.087-0.001h341.333c47.128 0 85.333 38.205 85.333 85.333v0h256c48.148 1.116 86.753 40.412 86.753 88.724 0 5.588-0.517 11.056-1.504 16.358l0.085-0.549zM725.333 618.667c23.564 0 42.667-19.103 42.667-42.667s-19.103-42.667-42.667-42.667c-23.564 0-42.667 19.103-42.667 42.667v0c0 23.564 19.103 42.667 42.667 42.667v0zM256 576c0 47.128 38.205 85.333 85.333 85.333s85.333-38.205 85.333-85.333c0-47.128-38.205-85.333-85.333-85.333v0 0c-47.128 0-85.333 38.205-85.333 85.333v0zM170.667 192c33.707 187.733 104.533 213.333 170.667 213.333v0c65.28 0 136.107-26.453 170.667-213.333zM850.773 277.333h-253.44c-0.252 0.498-0.4 1.085-0.4 1.707s0.148 1.209 0.41 1.729l-0.010-0.022c11.093 61.867 49.92 166.4 128 166.4 68.693 0 115.627-85.333 128-166.4 0 0.427 0-3.413-2.56-3.413z" />
<glyph unicode="&#xe929;" glyph-name="Plus" d="M512 704c23.564 0 42.667-19.103 42.667-42.667v-426.667c0-23.564-19.103-42.667-42.667-42.667s-42.667 19.103-42.667 42.667v426.667c0 23.564 19.103 42.667 42.667 42.667zM768 448c0-23.564-19.103-42.667-42.667-42.667h-426.667c-23.564 0-42.667 19.103-42.667 42.667s19.103 42.667 42.667 42.667h426.667c23.564 0 42.667-19.103 42.667-42.667z" />
<glyph unicode="&#xe92a;" glyph-name="Question" d="M362.667 554.667c-0.001 0.179-0.001 0.39-0.001 0.601 0 82.475 66.859 149.333 149.333 149.333s149.333-66.859 149.333-149.333c0-67.261-44.467-124.136-105.608-142.83l-1.058-0.278v-49.493c0-23.564-19.103-42.667-42.667-42.667s-42.667 19.103-42.667 42.667v0 85.333c0 23.564 19.103 42.667 42.667 42.667v0c35.346 0 64 28.654 64 64s-28.654 64-64 64c-35.346 0-64-28.654-64-64v0c0-23.564-19.103-42.667-42.667-42.667s-42.667 19.103-42.667 42.667v0zM469.333 234.667c0 23.564 19.103 42.667 42.667 42.667s42.667-19.103 42.667-42.667c0-23.564-19.103-42.667-42.667-42.667v0c-23.564 0-42.667 19.103-42.667 42.667v0zM512 106.667c-188.513 0-341.333 152.82-341.333 341.333s152.82 341.333 341.333 341.333c188.513 0 341.333-152.82 341.333-341.333v0c0-188.513-152.82-341.333-341.333-341.333v0zM512 874.667c-235.641 0-426.667-191.025-426.667-426.667s191.025-426.667 426.667-426.667c235.641 0 426.667 191.025 426.667 426.667v0c0 235.641-191.025 426.667-426.667 426.667v0z" />
<glyph unicode="&#xe92b;" glyph-name="Search" d="M938.667 81.493l-279.040 281.173c40.555 53.157 64.977 120.518 64.977 193.583 0 177.202-143.651 320.853-320.853 320.853s-320.853-143.651-320.853-320.853c0-177.202 143.651-320.853 320.853-320.853 73.065 0 140.426 24.422 194.365 65.549l-0.782-0.572 281.173-279.040c7.667-7.606 18.211-12.323 29.857-12.373h0.010c0.073 0 0.16-0.001 0.247-0.001 11.721 0 22.338 4.726 30.049 12.377l-0.003-0.003c7.668 7.712 12.407 18.343 12.407 30.080s-4.74 22.368-12.409 30.082l0.002-0.002zM170.667 554.667c0 129.603 105.064 234.667 234.667 234.667s234.667-105.064 234.667-234.667c0-129.603-105.064-234.667-234.667-234.667v0c-129.505 0.242-234.424 105.161-234.667 234.643v0.023z" />
<glyph unicode="&#xe92c;" glyph-name="Settings" d="M554.667 874.667h-82.773c0 0-0.001 0-0.001 0-39.673 0-71.863-32.041-72.105-71.657v-46.53c0-5.973-4.693-10.24-11.093-13.227-1.026-0.214-2.205-0.336-3.413-0.336s-2.387 0.122-3.526 0.356l0.113-0.019c-0.175-0.009-0.379-0.014-0.584-0.014-3.263 0-6.221 1.308-8.377 3.429l-31.571 31.571c-12.833 12.915-30.606 20.909-50.245 20.909-0.186 0-0.371-0.001-0.556-0.002h0.028c-0.136 0.001-0.297 0.001-0.458 0.001-19.527 0-37.186-7.999-49.879-20.899l-0.009-0.009-58.453-57.173c-13.389-12.97-21.699-31.115-21.699-51.2s8.31-38.23 21.68-51.182l0.019-0.018 31.573-31.573c1.606-2.473 2.562-5.498 2.562-8.747s-0.955-6.273-2.6-8.81l0.038 0.063c-1.932-5.297-6.632-9.141-12.303-9.807l-0.070-0.007h-43.947c0 0-0.001 0-0.001 0-39.438 0-71.437-31.85-71.679-71.23v-80.663c0-39.588 32.092-71.68 71.68-71.68v0h46.507c5.973 0 10.24-5.12 12.8-11.52 1.464-2.228 2.335-4.959 2.335-7.893s-0.871-5.665-2.369-7.948l0.034 0.055-34.56-31.573c-12.967-13.042-21.065-30.937-21.333-50.722l-0.001-0.051c0.020-19.88 8.179-37.851 21.323-50.763l0.010-0.010 57.173-58.027c12.636-12.907 30.239-20.91 49.711-20.91 0.224 0 0.447 0.001 0.67 0.003h-0.034c0.532-0.014 1.159-0.023 1.787-0.023 19.65 0 37.431 8.002 50.262 20.925l31.577 31.577c2.261 1.86 5.185 2.988 8.373 2.988 0.056 0 0.113 0 0.169-0.001h-0.009c1.347 0.291 2.894 0.457 4.48 0.457s3.133-0.166 4.625-0.483l-0.145 0.026c5.245-1.88 9.004-6.643 9.384-12.331l0.002-0.043v-46.507c-0.001-0.127-0.001-0.277-0.001-0.427 0-39.588 32.092-71.68 71.68-71.68 0 0 0.001 0 0.001 0h80.64c0 0 0.001 0 0.001 0 39.673 0 71.863 32.041 72.105 71.657v46.53c0 5.973 4.693 10.24 11.093 13.227 1.026 0.214 2.205 0.336 3.413 0.336s2.387-0.122 3.526-0.356l-0.113 0.019c0.175 0.009 0.379 0.014 0.584 0.014 3.263 0 6.221-1.308 8.377-3.429l-0.002 0.002 32.427-32.853c12.833-12.915 30.606-20.909 50.245-20.909 0.186 0 0.371 0.001 0.556 0.002h-0.028c0.136-0.001 0.297-0.001 0.458-0.001 19.527 0 37.186 7.999 49.879 20.899l57.182 57.182c13 12.912 21.047 30.796 21.047 50.56s-8.047 37.648-21.043 50.556l-0.004 0.004-31.147 34.133c-1.464 2.228-2.335 4.959-2.335 7.893s0.871 5.665 2.369 7.948l-0.034-0.055c1.932 5.297 6.632 9.141 12.303 9.807l0.070 0.007h46.507c38.191 1.405 68.674 32.484 69.12 70.784v82.816c0 39.588-32.092 71.68-71.68 71.68v0h-46.507c-5.973 0-10.24 5.12-12.8 11.52-1.464 2.228-2.335 4.959-2.335 7.893s0.871 5.665 2.369 7.948l-0.034-0.055 34.56 31.573c13.078 12.971 21.212 30.911 21.333 50.75v0.023c-0.020 19.88-8.179 37.851-21.323 50.763l-0.010 0.010-57.173 58.027c-12.636 12.907-30.239 20.91-49.711 20.91-0.224 0-0.447-0.001-0.67-0.003h0.034c-0.532 0.014-1.159 0.023-1.787 0.023-19.65 0-37.431-8.002-50.262-20.925l-31.577-31.577c-2.272-2.015-5.243-3.287-8.508-3.413l-0.025-0.001c-3.272 0.11-6.337 0.885-9.1 2.193l0.14-0.060c-5.245 1.88-9.004 6.643-9.384 12.331l-0.002 0.043v45.227c0 0.009 0 0.021 0 0.032 0 38.838-30.887 70.461-69.438 71.646l-0.109 0.003zM384 656.64c0.152-0.001 0.332-0.001 0.512-0.001 15.223 0 29.713 3.139 42.858 8.804l-0.704-0.27c36.55 14.996 61.901 50.142 62.293 91.257v32.902h53.76v-32.853c0.481-41.483 26.188-76.843 62.476-91.494l0.67-0.239c11.839-5.115 25.623-8.095 40.102-8.107h0.005c0.071 0 0.155 0 0.238 0 26.91 0 51.268 10.926 68.879 28.585l0.002 0.002 23.467 23.040 37.547-37.547-23.040-23.040c-17.618-18.114-28.483-42.877-28.483-70.177 0-14.589 3.103-28.454 8.684-40.97l-0.255 0.64c14.962-36.654 50.087-62.132 91.234-62.719l0.073-0.001h29.013v-52.907h-32.853c-41.127-0.513-76.218-25.815-91.063-61.631l-0.243-0.662c-5.102-11.596-8.072-25.115-8.072-39.327 0-27.225 10.897-51.905 28.567-69.916l-0.015 0.016 23.040-23.040-37.547-37.973-23.040 23.040c-17.886 17.624-42.437 28.526-69.535 28.587h-0.012c-0.152 0.001-0.332 0.001-0.512 0.001-15.223 0-29.713-3.139-42.858-8.804l0.704 0.27c-36.55-14.996-61.901-50.142-62.293-91.257v-34.182h-52.48v32.853c-0.481 41.483-26.188 76.843-62.476 91.494l-0.67 0.239c-11.189 4.844-24.196 7.795-37.855 8.105l-0.118 0.002c-0.071 0-0.155 0-0.238 0-26.91 0-51.268-10.926-68.879-28.585l-0.002-0.002-23.467-23.040-37.547 37.547 23.040 23.040c17.618 18.114 28.483 42.877 28.483 70.177 0 14.589-3.103 28.454-8.684 40.97l0.255-0.64c-14.962 36.654-50.087 62.132-91.234 62.719l-0.073 0.001h-34.987v52.907h32.853c55.22 1.705 99.336 46.878 99.336 102.354 0 27.314-10.694 52.131-28.124 70.491l0.042-0.045-23.040 23.040 37.547 37.973 23.040-23.040c17.937-17.684 42.583-28.605 69.779-28.605 0.668 0 1.335 0.007 2 0.020l-0.1-0.002zM512 597.333c-82.475 0-149.333-66.859-149.333-149.333s66.859-149.333 149.333-149.333c82.475 0 149.333 66.859 149.333 149.333v0c0 82.475-66.859 149.333-149.333 149.333v0zM512 384c-35.346 0-64 28.654-64 64s28.654 64 64 64c35.346 0 64-28.654 64-64v0c0-35.346-28.654-64-64-64v0z" />
<glyph unicode="&#xe92d;" glyph-name="Share" d="M789.333 320c-46.161-0.152-87.356-21.285-114.568-54.356l-0.205-0.257-295.68 145.92c3.252 10.994 5.123 23.625 5.123 36.693s-1.871 25.699-5.36 37.64l0.237-0.947 295.68 145.92c27.504-32.808 68.506-53.521 114.345-53.521 82.239 0 148.907 66.668 148.907 148.907s-66.668 148.907-148.907 148.907c-82.239 0-148.907-66.668-148.907-148.907 0-0.234 0.001-0.468 0.002-0.702v0.036c-0.2-2.364-0.314-5.115-0.314-7.893s0.114-5.53 0.337-8.25l-0.024 0.357-305.493-151.467c-26.060 24.321-61.157 39.253-99.742 39.253-0.035 0-0.069 0-0.104 0h0.006c-82.475 0-149.333-66.859-149.333-149.333s66.859-149.333 149.333-149.333v0c0.029 0 0.064 0 0.098 0 38.584 0 73.681 14.932 99.827 39.332l-0.086-0.079 305.493-151.467c-0.2-2.364-0.314-5.115-0.314-7.893s0.114-5.53 0.337-8.25l-0.024 0.357c0-82.475 66.859-149.333 149.333-149.333s149.333 66.859 149.333 149.333c0 82.475-66.859 149.333-149.333 149.333v0zM789.333 789.333c35.346 0 64-28.654 64-64s-28.654-64-64-64c-35.346 0-64 28.654-64 64v0c0 35.346 28.654 64 64 64v0zM234.667 384c-35.346 0-64 28.654-64 64s28.654 64 64 64c35.346 0 64-28.654 64-64v0c0-35.346-28.654-64-64-64v0zM789.333 106.667c-35.346 0-64 28.654-64 64s28.654 64 64 64c35.346 0 64-28.654 64-64v0c0-35.346-28.654-64-64-64v0z" />
<glyph unicode="&#xe92e;" glyph-name="Star-On" d="M512 874.667c-0.197 0.001-0.429 0.002-0.662 0.002-39.991 0-74.65-22.829-91.655-56.166l-0.27-0.582-67.413-135.68c-4.835-11.118-14.965-19.125-27.118-20.884l-0.188-0.022-151.040-21.76c-38.728-5.235-70.237-31.476-82.975-66.7l-0.225-0.713c-3.248-9.464-5.124-20.369-5.124-31.712 0-28.621 11.941-54.453 31.113-72.786l0.038-0.036 109.227-104.96c6.46-6.22 10.473-14.943 10.473-24.603 0-1.404-0.085-2.788-0.249-4.148l0.016 0.164-25.6-149.76c-0.954-5.259-1.499-11.313-1.499-17.494 0-56.79 46.037-102.827 102.827-102.827 0.077 0 0.154 0 0.231 0h-0.012c0.001 0 0.001 0 0.002 0 17.637 0 34.24 4.422 48.763 12.217l-0.552-0.271 135.253 70.4c4.107 1.951 8.924 3.091 14.007 3.091 0.927 0 1.845-0.038 2.753-0.112l-0.119 0.008c5.767-0.008 11.201-1.427 15.977-3.931l-0.19 0.091 135.253-70.4c13.996-7.416 30.576-11.82 48.173-11.946h0.040c0.048 0 0.105 0 0.161 0 31.457 0 59.642 14.009 78.657 36.13l0.115 0.137c15.217 17.653 24.485 40.809 24.485 66.13 0 6.030-0.526 11.938-1.534 17.679l0.089-0.609-24.747 149.333c-0.382 1.93-0.601 4.148-0.601 6.418 0 9.476 3.814 18.062 9.991 24.305l-0.003-0.003 109.653 104.533c19.21 18.369 31.151 44.201 31.151 72.821 0 11.343-1.875 22.248-5.333 32.421l0.209-0.709c-12.583 36.652-44.132 63.647-82.627 69.475l-0.573 0.071-151.040 20.053c-11.808 1.072-21.744 8.169-26.793 18.156l-0.087 0.19-67.84 138.24c-17.275 33.92-51.934 56.749-91.925 56.749-0.233 0-0.465-0.001-0.698-0.002h0.036z" />
<glyph unicode="&#xe92f;" glyph-name="Star-Off" d="M512 789.333c0.226 0.011 0.491 0.017 0.757 0.017 6.798 0 12.668-3.975 15.412-9.727l0.044-0.103 69.12-136.96c17.741-33.899 50.365-57.922 88.958-63.497l0.642-0.076 151.040-21.76c6.659-0.978 12.089-5.414 14.463-11.396l0.043-0.124c0.588-1.587 0.929-3.421 0.929-5.334 0-4.431-1.825-8.435-4.765-11.303l-0.003-0.003-110.080-104.533c-22.444-21.944-36.361-52.529-36.361-86.365 0-6.412 0.5-12.708 1.463-18.85l-0.088 0.681 25.173-150.187c0.162-0.837 0.255-1.801 0.255-2.785 0-4.037-1.557-7.71-4.103-10.451l0.009 0.010c-3.481-3.88-8.487-6.33-14.068-6.4h-0.012c-3.413 0.002-6.642 0.789-9.516 2.19l0.129-0.057-133.973 69.12c-15.811 8.337-34.554 13.231-54.44 13.231-0.361 0-0.722-0.002-1.082-0.005h0.055c-0.252 0.002-0.551 0.003-0.849 0.003-19.85 0-38.519-5.058-54.787-13.955l0.597 0.299-136.533-71.68c-2.488-1.251-5.408-2.027-8.498-2.132l-0.035-0.001c-3.999 0.028-7.695 1.302-10.725 3.453l0.058-0.039c-4.252 3.226-6.971 8.283-6.971 13.975 0 0.789 0.052 1.566 0.154 2.328l-0.010-0.089 25.6 153.173c0.67 4.728 1.053 10.189 1.053 15.739 0 33.546-13.976 63.828-36.424 85.34l-0.042 0.040-108.8 107.52c-3.2 2.9-5.202 7.073-5.202 11.713 0 1.92 0.343 3.761 0.971 5.463l-0.035-0.109c2.015 6.224 7.432 10.783 14.005 11.513l0.075 0.007 149.76 21.333c39.97 6.126 73.14 30.704 90.983 64.605l0.324 0.675 67.413 135.68c2.757 5.938 8.67 9.982 15.527 9.982 0.844 0 1.674-0.061 2.486-0.18l-0.092 0.011zM512 874.667c-0.197 0.001-0.429 0.002-0.662 0.002-39.991 0-74.65-22.829-91.655-56.166l-0.27-0.582-67.413-135.68c-4.835-11.118-14.965-19.125-27.118-20.884l-0.188-0.022-151.040-21.76c-38.728-5.235-70.237-31.476-82.975-66.7l-0.225-0.713c-3.248-9.464-5.124-20.369-5.124-31.712 0-28.621 11.941-54.453 31.113-72.786l0.038-0.036 109.227-104.96c6.46-6.22 10.473-14.943 10.473-24.603 0-1.404-0.085-2.788-0.249-4.148l0.016 0.164-25.6-149.76c-0.954-5.259-1.499-11.313-1.499-17.494 0-56.79 46.037-102.827 102.827-102.827 0.077 0 0.154 0 0.231 0h-0.012c0.001 0 0.001 0 0.002 0 17.637 0 34.24 4.422 48.763 12.217l-0.552-0.271 135.253 70.4c4.107 1.951 8.924 3.091 14.007 3.091 0.927 0 1.845-0.038 2.753-0.112l-0.119 0.008c5.767-0.008 11.201-1.427 15.977-3.931l-0.19 0.091 135.253-70.4c13.996-7.416 30.576-11.82 48.173-11.946h0.040c0.048 0 0.105 0 0.161 0 31.457 0 59.642 14.009 78.657 36.13l0.115 0.137c15.217 17.653 24.485 40.809 24.485 66.13 0 6.030-0.526 11.938-1.534 17.679l0.089-0.609-24.747 149.333c-0.382 1.93-0.601 4.148-0.601 6.418 0 9.476 3.814 18.062 9.991 24.305l-0.003-0.003 109.653 104.533c19.21 18.369 31.151 44.201 31.151 72.821 0 11.343-1.875 22.248-5.333 32.421l0.209-0.709c-12.583 36.652-44.132 63.647-82.627 69.475l-0.573 0.071-151.040 20.053c-11.808 1.072-21.744 8.169-26.793 18.156l-0.087 0.19-67.84 138.24c-17.275 33.92-51.934 56.749-91.925 56.749-0.233 0-0.465-0.001-0.698-0.002h0.036z" />
<glyph unicode="&#xe930;" glyph-name="Tag" d="M853.333 789.333v-298.667l-384-384-298.667 298.667 384 384h298.667zM853.333 874.667h-298.667c-23.523-0.102-44.783-9.706-60.156-25.169l-384.004-384.004c-15.335-15.424-24.814-36.685-24.814-60.16s9.479-44.736 24.818-60.164l298.663-298.663c15.424-15.335 36.685-24.814 60.16-24.814s44.736 9.479 60.164 24.818l383.996 383.996c15.467 15.377 25.071 36.637 25.173 60.14v298.687c0 47.128-38.205 85.333-85.333 85.333v0zM665.173 661.333c35.346 0 64-28.654 64-64s-28.654-64-64-64c-35.346 0-64 28.654-64 64v0c0 35.346 28.654 64 64 64v0zM665.173 746.667c-82.475 0-149.333-66.859-149.333-149.333s66.859-149.333 149.333-149.333c82.475 0 149.333 66.859 149.333 149.333v0c0 82.475-66.859 149.333-149.333 149.333v0z" />
<glyph unicode="&#xe931;" glyph-name="Trash" d="M426.667 490.667c-23.564 0-42.667-19.103-42.667-42.667v0-170.667c0-23.564 19.103-42.667 42.667-42.667s42.667 19.103 42.667 42.667v0 170.667c0 23.564-19.103 42.667-42.667 42.667v0zM597.333 490.667c-23.564 0-42.667-19.103-42.667-42.667v0-170.667c0-23.564 19.103-42.667 42.667-42.667s42.667 19.103 42.667 42.667v0 170.667c0 23.564-19.103 42.667-42.667 42.667v0zM896 704h-213.333v71.253c-2.093 55.375-47.489 99.472-103.184 99.472-1.225 0-2.444-0.021-3.659-0.064l0.176 0.005h-128c-1.038 0.037-2.258 0.059-3.483 0.059-55.695 0-101.091-44.097-103.178-99.282l-0.006-0.19v-71.253h-213.333c-23.564 0-42.667-19.103-42.667-42.667s19.103-42.667 42.667-42.667v0h42.667v-469.333c0-70.692 57.308-128 128-128v0h426.667c70.692 0 128 57.308 128 128v0 469.333h42.667c23.564 0 42.667 19.103 42.667 42.667s-19.103 42.667-42.667 42.667v0zM426.667 775.253c0 5.973 8.107 14.080 21.333 14.080h128c13.227 0 21.333-8.107 21.333-14.080v-71.253h-170.667zM768 149.333c0-23.564-19.103-42.667-42.667-42.667v0h-426.667c-23.564 0-42.667 19.103-42.667 42.667v0 469.333h512z" />
<glyph unicode="&#xe932;" glyph-name="Trophy" d="M853.333 746.667h-42.667v42.667c0 47.128-38.205 85.333-85.333 85.333v0h-426.667c-47.128 0-85.333-38.205-85.333-85.333v0-42.667h-42.667c-47.128 0-85.333-38.205-85.333-85.333v0-85.333c0-47.128 38.205-85.333 85.333-85.333v0h59.307c25.519-71.591 81.705-126.657 152.315-150.121l1.711-0.493v-105.387h-42.667c-47.128 0-85.333-38.205-85.333-85.333v0-85.333c0-23.564 19.103-42.667 42.667-42.667v0h426.667c23.564 0 42.667 19.103 42.667 42.667v0 85.333c0 47.128-38.205 85.333-85.333 85.333v0h-42.667v105.387c72.322 23.956 128.507 79.023 153.499 148.921l0.528 1.692h59.307c47.128 0 85.333 38.205 85.333 85.333v0 85.333c0 47.128-38.205 85.333-85.333 85.333v0zM170.667 661.333h42.667v-85.333h-42.667zM682.667 149.333v-42.667h-341.333v42.667zM554.667 234.667h-85.333v85.333c13.653 0 27.307-2.133 42.667-2.133s29.013 0 42.667 2.133zM725.333 572.16c0-17.067-5.973-166.827-213.333-166.827-194.56 0-213.333 128-213.333 166.827v217.173h426.667zM853.333 576h-42.667v85.333h42.667z" />
<glyph unicode="&#xe933;" glyph-name="Work-area" d="M426.667 704v42.667h170.667v-42.667h85.333v42.667c0 47.128-38.205 85.333-85.333 85.333v0h-170.667c-47.128 0-85.333-38.205-85.333-85.333v0-42.667zM869.547 391.68l-58.88-10.24v-232.107h-597.333v232.107l-58.88 10.24c-9.96 1.881-18.833 5.294-26.837 10.023l0.383-0.209v-252.16c0-47.128 38.205-85.333 85.333-85.333v0h597.333c47.128 0 85.333 38.205 85.333 85.333v0 252.16c-7.62-4.519-16.494-7.932-25.939-9.732l-0.514-0.082zM853.333 704h-682.667c-47.128 0-85.333-38.205-85.333-85.333v0-144.64c-0.009-0.462-0.014-1.006-0.014-1.552 0-41.398 29.479-75.911 68.591-83.691l0.543-0.090c58.88-7.68 144.213-22.187 229.547-30.72v85.333c-81.493 8.533-162.56 22.187-213.333 31.573v143.787h682.667v-144.213c-51.2-9.813-132.267-23.467-213.333-32v-85.333c85.333 8.533 170.667 23.040 229.547 33.707 39.655 7.871 69.134 42.384 69.134 83.782 0 0.546-0.005 1.090-0.015 1.633l0.001-0.081v142.507c0 47.128-38.205 85.333-85.333 85.333v0zM554.667 448v-85.333h-85.333v85.333h85.333zM597.333 533.333h-170.667c-23.564 0-42.667-19.103-42.667-42.667v0-170.667c0-23.564 19.103-42.667 42.667-42.667v0h170.667c23.564 0 42.667 19.103 42.667 42.667v0 170.667c0 23.564-19.103 42.667-42.667 42.667v0z" />
<glyph unicode="&#xe934;" glyph-name="Attach" d="M396.373 21.333c-74.103 0.367-140.98 31-188.961 80.16l-0.052 0.053c-49.254 46.753-79.896 112.7-79.896 185.805 0 68.441 26.858 130.609 70.608 176.54l-0.099-0.104 314.027 317.013c31.594 31.666 75.279 51.257 123.54 51.257 1.568 0 3.132-0.021 4.69-0.062l-0.23 0.005c53.345-0.187 101.512-22.198 136.071-57.563l0.036-0.037c35.163-33.892 57.001-81.4 57.001-134.009 0-49.409-19.262-94.318-50.687-127.629l0.085 0.091-315.733-317.013c-19.637-19.766-46.834-32.001-76.889-32.001-0.119 0-0.237 0-0.356 0.001h0.018c-64.165 0.831-115.861 53.040-115.861 117.324 0 30.445 11.596 58.182 30.611 79.035l-0.083-0.093 291.413 292.267c7.872 9.153 19.467 14.914 32.407 14.914 23.564 0 42.667-19.103 42.667-42.667 0-12.94-5.761-24.535-14.858-32.36l-0.056-0.047-294.4-292.693c-4.271-5.021-6.868-11.579-6.868-18.745 0-8.666 3.8-16.445 9.824-21.761l0.031-0.027c5.945-5.863 14.038-9.562 22.993-9.812l0.047-0.001c0.080-0.001 0.174-0.002 0.269-0.002 6.402 0 12.194 2.611 16.37 6.826l0.002 0.002 315.733 317.013c16.040 17.765 25.854 41.42 25.854 67.367 0 29.154-12.39 55.414-32.191 73.802l-0.063 0.058c-18.57 19.213-44.571 31.142-73.359 31.142-25.511 0-48.833-9.368-66.716-24.851l0.128 0.109-314.88-315.307c-28.48-30.417-45.971-71.429-45.971-116.525 0-49.743 21.281-94.515 55.234-125.709l0.123-0.112c32.566-33.316 77.806-54.124 127.908-54.613l0.092-0.001c0.378-0.003 0.824-0.005 1.271-0.005 42.925 0 81.817 17.272 110.103 45.246l-0.014-0.014 315.307 317.013c7.712 7.668 18.343 12.407 30.080 12.407s22.368-4.74 30.082-12.409l-0.002 0.002c7.795-7.733 12.621-18.45 12.621-30.293s-4.826-22.56-12.618-30.291l-0.003-0.003-315.307-317.013c-43.629-44.165-104.15-71.556-171.070-71.68h-0.024z" />
<glyph unicode="&#xe935;" glyph-name="Barcode" d="M170.667 64c-23.564 0-42.667 19.103-42.667 42.667v0 682.667c0 23.564 19.103 42.667 42.667 42.667s42.667-19.103 42.667-42.667v0-682.667c0-23.564-19.103-42.667-42.667-42.667v0zM298.667 64c-23.564 0-42.667 19.103-42.667 42.667v0 682.667c0 23.564 19.103 42.667 42.667 42.667s42.667-19.103 42.667-42.667v0-682.667c0-23.564-19.103-42.667-42.667-42.667v0zM810.667 64h-85.333c-47.128 0-85.333 38.205-85.333 85.333v0 597.333c0 47.128 38.205 85.333 85.333 85.333v0h85.333c47.128 0 85.333-38.205 85.333-85.333v0-597.333c0-47.128-38.205-85.333-85.333-85.333v0zM725.333 149.333h85.333v597.333h-85.333zM512 64h-42.667c-47.128 0-85.333 38.205-85.333 85.333v0 597.333c0 47.128 38.205 85.333 85.333 85.333v0h42.667c47.128 0 85.333-38.205 85.333-85.333v0-597.333c0-47.128-38.205-85.333-85.333-85.333v0zM469.333 149.333h42.667v597.333h-42.667z" />
<glyph unicode="&#xe936;" glyph-name="Publication" d="M810.667 789.333l-224.853-128h-415.147c-47.128 0-85.333-38.205-85.333-85.333v0-213.333c0-47.128 38.205-85.333 85.333-85.333v0h170.667v-213.333c0-23.564 19.103-42.667 42.667-42.667s42.667 19.103 42.667 42.667v0 213.333h159.147l224.853-128c12.239-7.188 26.957-11.433 42.667-11.433 47.098 0 85.283 38.155 85.333 85.241v492.805c-0.291 46.907-38.384 84.82-85.332 84.82-15.71 0-30.429-4.245-43.071-11.651l0.403 0.218zM170.667 362.667v213.333h170.667v-213.333zM853.333 222.72l-244.48 139.947h-182.187v213.333h182.187l244.48 139.947z" />
<glyph unicode="&#xe937;" glyph-name="Statics" d="M341.333 64h-170.667c-47.128 0-85.333 38.205-85.333 85.333v0 213.333c0 47.128 38.205 85.333 85.333 85.333v0h85.333c47.128 0 85.333-38.205 85.333-85.333v0zM170.667 149.333h85.333v213.333h-85.333zM640 64h-256v469.333c0 47.128 38.205 85.333 85.333 85.333v0h85.333c47.128 0 85.333-38.205 85.333-85.333v0zM469.333 149.333h85.333v384h-85.333zM853.333 64h-170.667v640c0 47.128 38.205 85.333 85.333 85.333v0h85.333c47.128 0 85.333-38.205 85.333-85.333v0-554.667c0-47.128-38.205-85.333-85.333-85.333v0zM768 149.333h85.333v554.667h-85.333zM256 149.333h597.333v-85.333h-597.333v85.333z" />
<glyph unicode="&#xe938;" glyph-name="Info" d="M512 789.333c188.513 0 341.333-152.82 341.333-341.333s-152.82-341.333-341.333-341.333c-188.513 0-341.333 152.82-341.333 341.333v0c0 188.513 152.82 341.333 341.333 341.333v0zM512 874.667c-235.641 0-426.667-191.025-426.667-426.667s191.025-426.667 426.667-426.667c235.641 0 426.667 191.025 426.667 426.667v0c0 235.641-191.025 426.667-426.667 426.667v0zM512 234.667c23.564 0 42.667 19.103 42.667 42.667v0 213.333c0 23.564-19.103 42.667-42.667 42.667s-42.667-19.103-42.667-42.667v0-213.333c0-23.564 19.103-42.667 42.667-42.667v0zM512 576c23.564 0 42.667 19.103 42.667 42.667s-19.103 42.667-42.667 42.667c-23.564 0-42.667-19.103-42.667-42.667v0c0-23.564 19.103-42.667 42.667-42.667v0z" />
<glyph unicode="&#xe939;" glyph-name="Shop" d="M810.667 128c0-35.371-28.672-64-64-64s-64 28.629-64 64c0 35.371 28.672 64 64 64s64-28.629 64-64zM384 128c0-35.371-28.672-64-64-64s-64 28.629-64 64c0 35.371 28.672 64 64 64s64-28.629 64-64zM698.965 362.667h-325.035l-69.845 256h522.88l-128-256zM899.541 663.552c-15.659 25.344-42.795 40.448-72.576 40.448h-546.133l-26.325 96.555c-5.077 18.56-21.931 31.445-41.173 31.445h-85.333c-23.595 0-42.667-19.115-42.667-42.667s19.072-42.667 42.667-42.667h52.736l119.424-437.888c5.077-18.56 21.931-31.445 41.173-31.445h384c16.171 0 30.933 9.131 38.187 23.595l139.776 279.595c13.312 26.667 11.904 57.685-3.755 83.029z" />
<glyph unicode="&#xe93a;" glyph-name="ICON-Settings" d="M554.667 874.667h-82.773c-19.051 0-37.325-7.538-50.837-20.969-13.51-13.431-21.157-31.662-21.27-50.711v-46.507c0-5.973-4.693-10.24-11.093-13.227-2.254-0.448-4.573-0.448-6.827 0-1.648-0.081-3.295 0.181-4.838 0.768s-2.946 1.488-4.122 2.645l-31.573 31.573c-6.645 6.689-14.56 11.984-23.278 15.574s-18.067 5.403-27.495 5.333c-9.364 0.061-18.645-1.757-27.293-5.349s-16.488-8.881-23.054-15.558l-58.453-57.173c-6.865-6.644-12.323-14.6-16.051-23.396s-5.649-18.251-5.649-27.804c0-9.553 1.921-19.008 5.649-27.804s9.186-16.752 16.051-23.396l31.573-31.573c1.673-2.611 2.562-5.646 2.562-8.747s-0.889-6.136-2.562-8.747c-0.939-2.629-2.596-4.942-4.783-6.676s-4.817-2.822-7.59-3.137h-43.947c-18.937 0-37.105-7.493-50.535-20.844s-21.032-31.474-21.145-50.41v-80.64c0-19.012 7.552-37.244 20.995-50.684 13.443-13.444 31.675-20.996 50.685-20.996h46.507c5.973 0 10.24-5.12 12.8-11.52 1.524-2.351 2.336-5.090 2.336-7.893s-0.811-5.542-2.336-7.893l-34.56-31.573c-13.433-13.513-21.083-31.723-21.333-50.773 0.009-9.455 1.9-18.816 5.563-27.533s9.024-16.614 15.77-23.241l57.173-58.027c6.551-6.694 14.388-11.998 23.040-15.59s17.94-5.402 27.307-5.316c9.643-0.243 19.234 1.485 28.185 5.082 8.951 3.593 17.073 8.981 23.869 15.825l31.573 31.573c2.405 1.967 5.426 3.025 8.533 2.987 2.956 0.61 6.004 0.61 8.96 0 2.606-0.913 4.884-2.577 6.554-4.774 1.669-2.202 2.654-4.843 2.833-7.599v-46.507c-0.056-9.451 1.756-18.816 5.333-27.563s8.848-16.695 15.51-23.398c6.66-6.703 14.583-12.019 23.308-15.65 8.725-3.627 18.078-5.495 27.529-5.495h80.64c19.051 0 37.325 7.539 50.837 20.966 13.508 13.431 21.158 31.663 21.269 50.714v46.507c0 5.973 4.693 10.24 11.093 13.227 2.253 0.448 4.574 0.448 6.827 0 1.647 0.081 3.294-0.179 4.838-0.768 1.54-0.589 2.944-1.489 4.122-2.645l32.427-32.853c6.647-6.69 14.558-11.985 23.279-15.573 8.717-3.593 18.065-5.402 27.494-5.333 9.365-0.060 18.645 1.758 27.294 5.35 8.649 3.588 16.486 8.879 23.053 15.556l57.173 57.173c6.669 6.622 11.964 14.498 15.573 23.177 3.614 8.678 5.474 17.984 5.474 27.383s-1.86 18.705-5.474 27.383c-3.61 8.678-8.905 16.555-15.573 23.177l-31.147 34.133c-1.523 2.351-2.334 5.090-2.334 7.893s0.811 5.542 2.334 7.893c0.939 2.628 2.594 4.941 4.783 6.677 2.189 1.732 4.817 2.82 7.59 3.136h46.507c18.415 0.657 35.874 8.384 48.742 21.572 12.873 13.188 20.169 30.827 20.378 49.254v82.773c0 19.012-7.552 37.244-20.996 50.685-13.44 13.443-31.671 20.995-50.684 20.995h-46.507c-5.973 0-10.24 5.12-12.8 11.52-1.523 2.351-2.334 5.092-2.334 7.893s0.811 5.543 2.334 7.893l34.56 31.573c13.551 13.435 21.218 31.693 21.333 50.773-0.009 9.455-1.899 18.814-5.564 27.531-3.661 8.717-9.024 16.618-15.77 23.242l-57.173 58.027c-6.549 6.696-14.387 12-23.040 15.592s-17.941 5.4-27.307 5.315c-9.643 0.244-19.234-1.485-28.186-5.080s-17.071-8.98-23.868-15.826l-31.573-31.573c-2.364-2.090-5.38-3.296-8.533-3.413-3.102 0.101-6.148 0.826-8.96 2.133-2.607 0.915-4.885 2.575-6.554 4.775s-2.654 4.842-2.833 7.598v45.227c0.009 18.647-7.249 36.563-20.237 49.946-12.983 13.383-30.673 21.179-49.31 21.734zM384 656.64c14.653-0.069 29.168 2.833 42.667 8.533 18.253 7.346 33.916 19.944 45.005 36.198s17.105 35.433 17.289 55.109v32.853h53.76v-32.853c0.222-19.834 6.349-39.151 17.596-55.489s27.102-28.956 45.551-36.244c12.698-5.34 26.334-8.096 40.107-8.107 12.838-0.032 25.553 2.478 37.419 7.385 11.861 4.906 22.635 12.112 31.701 21.202l23.467 23.040 37.547-37.547-23.040-23.040c-13.939-14.345-23.292-32.516-26.863-52.198s-1.203-39.98 6.81-58.309c7.326-18.3 19.908-34.022 36.156-45.184 16.252-11.162 35.439-17.263 55.151-17.536h29.013v-52.907h-32.853c-19.661-0.239-38.818-6.276-55.061-17.357-16.243-11.085-28.851-26.714-36.245-44.937-7.795-18.185-10.010-38.281-6.362-57.728s12.988-37.372 26.842-51.499l23.040-23.040-37.547-37.973-23.040 23.040c-18.547 18.266-43.516 28.531-69.547 28.587-14.652 0.068-29.167-2.833-42.667-8.533-18.253-7.347-33.916-19.942-45.005-36.198-11.089-16.252-17.105-35.435-17.289-55.108v-34.133h-52.48v32.853c-0.222 19.831-6.349 39.151-17.596 55.488s-27.102 28.958-45.551 36.245c-12.034 5.069-24.918 7.821-37.973 8.107-12.838 0.030-25.554-2.479-37.417-7.386s-22.638-12.113-31.703-21.201l-23.467-23.040-37.547 37.547 23.040 23.040c13.94 14.345 23.293 32.516 26.865 52.198s1.2 39.979-6.811 58.308c-7.327 18.3-19.908 34.022-36.157 45.184s-35.439 17.263-55.15 17.536h-34.987v52.907h32.853c19.75 0.593 38.907 6.882 55.161 18.121 16.254 11.234 28.91 26.931 36.442 45.198s9.619 38.323 6.008 57.749c-3.611 19.426-12.765 37.393-26.358 51.733l-23.040 23.040 37.547 37.973 23.040-23.040c9.439-9.302 20.643-16.623 32.953-21.532s25.477-7.308 38.727-7.055zM512 597.333c-29.534 0-58.406-8.758-82.965-25.167-24.558-16.409-43.698-39.733-55.001-67.018s-14.26-57.314-8.498-86.281c5.762-28.966 19.985-55.578 40.87-76.463s47.495-35.106 76.462-40.866c28.966-5.764 58.995-2.807 86.281 8.495s50.611 30.443 67.017 55.002c16.41 24.559 25.169 53.431 25.169 82.965 0 39.607-15.731 77.589-43.738 105.594s-65.988 43.739-105.596 43.739zM512 384c-12.659 0-25.033 3.755-35.558 10.786-10.522 7.031-18.726 17.028-23.569 28.723-4.847 11.695-6.114 24.563-3.644 36.975 2.47 12.416 8.567 23.821 17.515 32.772 8.951 8.947 20.356 15.044 32.772 17.515 12.412 2.47 25.28 1.203 36.975-3.644 11.695-4.843 21.692-13.047 28.723-23.569 7.031-10.526 10.786-22.899 10.786-35.558 0-16.973-6.741-33.254-18.743-45.257s-28.284-18.743-45.257-18.743z" />
<glyph unicode="&#xe93b;" glyph-name="Phone" d="M281.6 789.333c-61.184 0-110.933-49.749-110.933-110.933 0-315.221 256.469-571.733 571.733-571.733 61.141 0 110.933 49.749 110.933 110.933 0 4.736-0.299 9.387-0.896 13.995l-197.12 45.227c-3.925-7.509-8.235-15.659-12.16-23.253-19.456-37.12-33.536-64.085-69.461-49.621-141.056 49.493-256.213 164.693-306.347 307.456-15.232 33.493 13.781 48.683 50.56 67.883 7.467 3.925 15.531 8.149 22.912 11.989l-45.227 197.163c-4.736 0.597-9.344 0.896-13.995 0.896zM742.4 21.333c-362.325 0-657.067 294.741-657.067 657.067 0 108.245 88.021 196.267 196.267 196.267 11.093 0 22.059-0.939 32.683-2.773 10.368-1.664 20.779-4.309 30.933-7.808 13.867-4.821 24.32-16.469 27.605-30.805l58.411-254.464c3.243-13.995-0.811-28.672-10.795-39.083-5.803-6.059-5.931-6.187-58.837-33.877 42.837-92.757 117.291-166.955 208.171-208.341 27.733 52.949 27.904 53.12 33.963 58.923 10.411 9.984 25.173 13.867 39.083 10.795l254.507-58.411c14.293-3.285 25.941-13.696 30.72-27.563 3.499-10.069 6.144-20.48 7.893-31.189 1.792-10.539 2.731-21.461 2.731-32.469 0-108.245-88.064-196.267-196.267-196.267z" />
<glyph unicode="&#xe93c;" glyph-name="Layers" d="M757.773 296.96l-245.76-141.099-245.759 141.099 72.277 30.763 152.233-87.381c6.571-3.797 13.909-5.675 21.248-5.675s14.635 1.877 21.248 5.675l152.235 87.424 72.277-30.805zM490.765 411.008c6.571-3.797 13.909-5.675 21.248-5.675s14.635 1.877 21.248 5.675l152.235 87.424 72.277-30.805-245.76-141.099-245.759 141.099 72.277 30.805 152.233-87.424zM512.013 742.954l245.76-104.661-245.76-141.098-245.759 141.098 245.759 104.661zM895.927 475.819c-0.981 16.171-11.008 30.379-25.899 36.736l-91.819 39.082 96.384 55.339c14.037 8.021 22.272 23.339 21.333 39.509-0.981 16.128-11.008 30.379-25.899 36.736l-341.333 145.365c-10.667 4.565-22.741 4.565-33.408 0l-341.332-145.365c-14.891-6.357-24.917-20.608-25.856-36.736-0.981-16.171 7.296-31.488 21.333-39.509l96.341-55.339-91.819-39.082c-14.891-6.357-24.917-20.565-25.856-36.736-0.981-16.171 7.296-31.488 21.333-39.509l96.341-55.339-91.819-39.083c-14.891-6.357-24.917-20.565-25.856-36.736-0.981-16.171 7.296-31.488 21.333-39.509l341.332-195.968c6.571-3.797 13.909-5.675 21.248-5.675s14.635 1.877 21.248 5.675l341.333 195.968c14.037 8.021 22.272 23.339 21.333 39.509-0.981 16.128-11.008 30.379-25.856 36.736l-91.819 39.125 96.341 55.296c14.037 8.021 22.272 23.339 21.333 39.509z" />
<glyph unicode="&#xe93d;" glyph-name="Folder" d="M170.667 373.103v-184.021c0-10.155 9.557-18.432 21.333-18.432h640c11.776 0 21.333 8.277 21.333 18.432v366.508c0 10.197-9.557 18.432-21.333 18.432h-320c-12.8 0-24.917 5.76-33.024 15.701l-110.933 135.595h-176.043c-11.776 0-21.333-8.235-21.333-18.389v-333.825zM832 85.316h-640c-58.795 0-106.667 46.549-106.667 103.765v517.847c0 57.216 47.872 103.723 106.667 103.723h196.309c12.757 0 24.917-5.717 33.024-15.659l110.891-135.637h299.776c58.795 0 106.667-46.507 106.667-103.765v-366.508c0-57.216-47.872-103.765-106.667-103.765z" />
<glyph unicode="&#xe93e;" glyph-name="Award" d="M525.043 247.168c-13.269 7.296-29.312 7.168-42.24-0.555l-159.914-93.867 62.635 243.627c37.333-21.333 80.468-33.707 126.463-33.707s89.131 12.373 126.507 33.707l63.531-247.125-176.981 97.92zM511.987 789.333c94.123 0 170.667-76.544 170.667-170.667s-76.544-170.667-170.667-170.667c-94.122 0-170.666 76.544-170.666 170.667s76.544 170.667 170.666 170.667zM809.331 74.624l-98.517 383.104c35.669 44.032 57.173 99.968 57.173 160.939 0 141.184-114.816 256-256 256-141.14 0-255.999-114.816-255.999-256 0-60.971 21.504-116.907 57.173-160.939l-98.475-383.104c-4.309-16.725 1.877-34.347 15.659-44.715 13.739-10.368 32.427-11.307 47.232-2.688l227.412 133.504 242.347-134.059c6.443-3.584 13.568-5.333 20.651-5.333 9.259 0 18.475 2.987 26.155 8.917 13.44 10.411 19.456 27.861 15.189 44.373z" />
<glyph unicode="&#xe93f;" glyph-name="Story" d="M614.4 661.333c-0.972-3.396-1.531-7.297-1.531-11.328 0-19.555 13.155-36.037 31.098-41.080l0.3-0.072 186.88-52.907h11.947c0.47-0.019 1.022-0.029 1.576-0.029 19.473 0 35.9 13.046 41.016 30.875l0.074 0.301 52.907 186.88c0.992 3.429 1.562 7.367 1.562 11.439 0 19.41-12.961 35.793-30.7 40.966l-0.302 0.075c-4.336 1.627-9.348 2.568-14.579 2.568-19.777 0-36.41-13.455-41.247-31.71l-0.067-0.298-19.627-69.973c-78.661 90.372-193.885 147.169-322.375 147.169-235.641 0-426.667-191.025-426.667-426.667s191.025-426.667 426.667-426.667c166.471 0 310.675 95.338 380.99 234.392l1.118 2.439c2.872 5.591 4.555 12.199 4.555 19.2 0 23.606-19.136 42.742-42.742 42.742-16.604 0-30.998-9.468-38.075-23.3l-0.112-0.241c-57.207-113.014-172.476-189.136-305.523-189.136-188.513 0-341.333 152.82-341.333 341.333s152.82 341.333 341.333 341.333c107.627 0 203.619-49.812 266.181-127.641l0.516-0.664-110.933 31.147c-3.423 0.988-7.355 1.557-11.42 1.557-20.028 0-36.834-13.8-41.426-32.41l-0.061-0.293z" />
<glyph unicode="&#xe940;" glyph-name="File" d="M554.667 405.333c0-23.564-19.103-42.667-42.667-42.667h-128c-23.564 0-42.667 19.103-42.667 42.667s19.103 42.667 42.667 42.667h128c23.564 0 42.667-19.103 42.667-42.667zM682.667 234.667c0-23.564-19.103-42.667-42.667-42.667h-256c-23.564 0-42.667 19.103-42.667 42.667s19.103 42.667 42.667 42.667h256c23.564 0 42.667-19.103 42.667-42.667zM537.173 874.667h-281.173c-47.128 0-85.333-38.205-85.333-85.333v0-682.667c0-47.128 38.205-85.333 85.333-85.333v0h512c47.128 0 85.333 38.205 85.333 85.333v0 451.84c-0.102 23.523-9.706 44.783-25.169 60.156l-230.831 230.831c-15.377 15.467-36.637 25.071-60.14 25.173h-0.020zM597.333 729.173l110.507-110.507h-110.507zM768 106.667h-512v682.667h256v-170.667c0-47.128 38.205-85.333 85.333-85.333v0h170.667z" />
<glyph unicode="&#xe941;" glyph-name="Dialogue" d="M469.333 490.667c0-23.564 19.103-42.667 42.667-42.667s42.667 19.103 42.667 42.667c0 23.564-19.103 42.667-42.667 42.667v0c-23.564 0-42.667-19.103-42.667-42.667v0zM298.667 490.667c0-23.564 19.103-42.667 42.667-42.667s42.667 19.103 42.667 42.667c0 23.564-19.103 42.667-42.667 42.667v0c-23.564 0-42.667-19.103-42.667-42.667v0zM640 490.667c0-23.564 19.103-42.667 42.667-42.667s42.667 19.103 42.667 42.667c0 23.564-19.103 42.667-42.667 42.667v0c-23.564 0-42.667-19.103-42.667-42.667v0zM170.667 704c0 23.564 19.103 42.667 42.667 42.667v0h597.333c23.564 0 42.667-19.103 42.667-42.667v0-564.48l-128 76.8c-18.838 11.523-41.638 18.347-66.031 18.347-0.036 0-0.072 0-0.107 0h-445.861c-23.564 0-42.667 19.103-42.667 42.667v0zM85.333 704v-426.667c0-70.692 57.308-128 128-128v0h445.867c8.029-0.002 15.54-2.222 21.953-6.081l-0.193 0.107 192.853-116.053c6.377-3.693 14.016-5.901 22.165-5.973h0.021c7.69 0.024 14.895 2.079 21.114 5.657l-0.207-0.11c13.061 7.444 21.732 21.266 21.76 37.116v640.004c0 70.692-57.308 128-128 128v0h-597.333c-70.692 0-128-57.308-128-128v0z" />
<glyph unicode="&#xe942;" glyph-name="Person-Plus" d="M622.507 380.16c-18.505 31.427-43.172 57.32-72.523 76.691l-0.864 0.536c30.971 30.899 50.132 73.624 50.132 120.825 0 9.007-0.698 17.851-2.042 26.481l0.123-0.96c-7.399 88.41-80.98 157.362-170.667 157.362-94.567 0-171.229-76.662-171.229-171.229 0-4.881 0.204-9.714 0.605-14.491l-0.042 0.625c0.074-46.143 18.449-87.981 48.253-118.654l-0.040 0.041c-85.333-55.040-117.333-167.68-132.267-250.453-0.838-4.49-1.317-9.656-1.317-14.933 0-47.128 38.205-85.333 85.333-85.333 0.013 0 0.026 0 0.039 0h341.331c47.128 0 85.333 38.205 85.333 85.333v0c-5.003 70.205-26.731 134.429-61.183 189.928l1.023-1.768zM426.667 661.333c47.128 0 85.333-38.205 85.333-85.333s-38.205-85.333-85.333-85.333v0 0c-47.128 0-85.333 38.205-85.333 85.333s38.205 85.333 85.333 85.333v0zM256 192c33.707 187.733 104.96 213.333 170.667 213.333v0c64.853 0 136.107-26.453 170.667-213.333zM768 832c23.564 0 42.667-19.103 42.667-42.667v-170.667c0-23.564-19.103-42.667-42.667-42.667s-42.667 19.103-42.667 42.667v170.667c0 23.564 19.103 42.667 42.667 42.667zM682.667 746.667h170.667c23.564 0 42.667-19.103 42.667-42.667s-19.103-42.667-42.667-42.667h-170.667c-23.564 0-42.667 19.103-42.667 42.667s19.103 42.667 42.667 42.667z" />
<glyph unicode="&#xe943;" glyph-name="Download" d="M542.293 257.28l170.667 170.667c7.668 7.712 12.407 18.343 12.407 30.080s-4.74 22.368-12.409 30.082l0.002-0.002c-7.733 7.795-18.45 12.621-30.293 12.621s-22.56-4.826-30.291-12.618l-97.71-97.71v356.267c0 23.564-19.103 42.667-42.667 42.667s-42.667-19.103-42.667-42.667v0-356.267l-97.707 97.707c-7.736 7.789-18.452 12.611-30.293 12.611-23.577 0-42.691-19.113-42.691-42.691 0-11.736 4.735-22.365 12.4-30.082l170.665-170.665c7.733-7.795 18.45-12.621 30.293-12.621s22.56 4.826 30.291 12.618l0.003 0.003zM896 106.667v170.667c0 23.564-19.103 42.667-42.667 42.667s-42.667-19.103-42.667-42.667v0-128h-597.333v128c0 23.564-19.103 42.667-42.667 42.667s-42.667-19.103-42.667-42.667v0-170.667c0-23.564 19.103-42.667 42.667-42.667v0h682.667c23.564 0 42.667 19.103 42.667 42.667v0z" />
<glyph unicode="&#xe944;" glyph-name="Web" d="M853.333 789.333h-682.667c-47.128 0-85.333-38.205-85.333-85.333v0-512c0-47.128 38.205-85.333 85.333-85.333v0h682.667c47.128 0 85.333 38.205 85.333 85.333v0 512c0 47.128-38.205 85.333-85.333 85.333v0zM341.333 704c23.564 0 42.667-19.103 42.667-42.667s-19.103-42.667-42.667-42.667c-23.564 0-42.667 19.103-42.667 42.667v0c0 23.564 19.103 42.667 42.667 42.667v0zM213.333 704c23.564 0 42.667-19.103 42.667-42.667s-19.103-42.667-42.667-42.667c-23.564 0-42.667 19.103-42.667 42.667v0c0 23.564 19.103 42.667 42.667 42.667v0zM853.333 192h-682.667v341.333h682.667zM810.667 618.667h-256c-23.564 0-42.667 19.103-42.667 42.667s19.103 42.667 42.667 42.667v0h256c23.564 0 42.667-19.103 42.667-42.667s-19.103-42.667-42.667-42.667v0z" />
<glyph unicode="&#xe945;" glyph-name="Order-Down" d="M725.333 490.667h-426.667c-16.936 0.132-31.509 10.11-38.29 24.487l-0.11 0.26c-2.483 5.248-3.933 11.401-3.933 17.892 0 10.431 3.743 19.988 9.96 27.401l-0.054-0.066 213.333 256c7.882 9.464 19.669 15.443 32.853 15.443s24.971-5.98 32.798-15.375l0.056-0.069 213.333-256c6.163-7.346 9.906-16.903 9.906-27.335 0-6.491-1.45-12.644-4.043-18.152l0.11 0.26c-6.936-14.734-21.659-24.75-38.723-24.75-0.187 0-0.373 0.001-0.559 0.004h0.028zM389.547 576h244.907l-122.453 146.773zM512 64c-0.021 0-0.045 0-0.069 0-13.146 0-24.903 5.945-32.73 15.293l-0.054 0.067-213.333 256c-6.163 7.346-9.906 16.903-9.906 27.335 0 6.491 1.45 12.644 4.043 18.152l-0.11-0.26c6.936 14.732 21.659 24.747 38.721 24.747 0.037 0 0.074 0 0.111 0h426.661c16.936-0.132 31.509-10.11 38.29-24.487l0.11-0.26c2.483-5.248 3.933-11.401 3.933-17.892 0-10.431-3.743-19.988-9.96-27.401l0.054 0.066-213.333-256c-7.806-9.326-19.414-15.247-32.407-15.36h-0.019z" />
<glyph unicode="&#xe946;" glyph-name="Order-Up" d="M725.333 490.667h-426.667c-16.936 0.132-31.509 10.11-38.29 24.487l-0.11 0.26c-2.483 5.248-3.933 11.401-3.933 17.892 0 10.431 3.743 19.988 9.96 27.401l-0.054-0.066 213.333 256c7.882 9.464 19.669 15.443 32.853 15.443s24.971-5.98 32.798-15.375l0.056-0.069 213.333-256c6.163-7.346 9.906-16.903 9.906-27.335 0-6.491-1.45-12.644-4.043-18.152l0.11 0.26c-6.936-14.734-21.659-24.75-38.723-24.75-0.187 0-0.373 0.001-0.559 0.004h0.028zM512 64c-0.021 0-0.045 0-0.069 0-13.146 0-24.903 5.945-32.73 15.293l-0.054 0.067-213.333 256c-6.163 7.346-9.906 16.903-9.906 27.335 0 6.491 1.45 12.644 4.043 18.152l-0.11-0.26c6.936 14.732 21.659 24.747 38.721 24.747 0.037 0 0.074 0 0.111 0h426.661c16.936-0.132 31.509-10.11 38.29-24.487l0.11-0.26c2.483-5.248 3.933-11.401 3.933-17.892 0-10.431-3.743-19.988-9.96-27.401l0.054 0.066-213.333-256c-7.806-9.326-19.414-15.247-32.407-15.36h-0.019zM389.547 320l122.453-146.773 122.453 146.773z" />
<glyph unicode="&#xe947;" glyph-name="Order" d="M725.333 490.667h-426.667c-16.936 0.132-31.509 10.11-38.29 24.487l-0.11 0.26c-2.483 5.248-3.933 11.401-3.933 17.892 0 10.431 3.743 19.988 9.96 27.401l-0.054-0.066 213.333 256c7.882 9.464 19.669 15.443 32.853 15.443s24.971-5.98 32.798-15.375l0.056-0.069 213.333-256c6.163-7.346 9.906-16.903 9.906-27.335 0-6.491-1.45-12.644-4.043-18.152l0.11 0.26c-6.936-14.734-21.659-24.75-38.723-24.75-0.187 0-0.373 0.001-0.559 0.004h0.028zM389.547 576h244.907l-122.453 146.773zM512 64c-0.021 0-0.045 0-0.069 0-13.146 0-24.903 5.945-32.73 15.293l-0.054 0.067-213.333 256c-6.163 7.346-9.906 16.903-9.906 27.335 0 6.491 1.45 12.644 4.043 18.152l-0.11-0.26c6.936 14.732 21.659 24.747 38.721 24.747 0.037 0 0.074 0 0.111 0h426.661c16.936-0.132 31.509-10.11 38.29-24.487l0.11-0.26c2.483-5.248 3.933-11.401 3.933-17.892 0-10.431-3.743-19.988-9.96-27.401l0.054 0.066-213.333-256c-7.806-9.326-19.414-15.247-32.407-15.36h-0.019zM389.547 320l122.453-146.773 122.453 146.773z" />
<glyph unicode="&#xe948;" glyph-name="Team" d="M923.733 341.333c-10.253 42.715-30.832 79.648-58.98 109.333l0.1-0.106c18.881 22.162 30.367 51.127 30.367 82.776 0 70.418-56.864 127.555-127.178 127.997h-0.042c-0.175 0.001-0.382 0.001-0.589 0.001-35.872 0-68.228-15.058-91.091-39.197l-0.054-0.057c-21.366 71.586-86.613 122.88-163.84 122.88s-142.474-51.294-163.53-121.672l-0.31-1.208c-22.917 24.201-55.275 39.262-91.151 39.262-0.505 0-1.009-0.003-1.512-0.009l0.076 0.001c-70.356-0.442-127.22-57.579-127.22-127.998 0-31.648 11.486-60.614 30.517-82.956l-0.15 0.18c-27.58-29.727-47.845-66.624-57.692-107.577l-0.335-1.649c-1.59-6.16-2.503-13.232-2.503-20.517 0-47.128 38.205-85.333 85.333-85.333 0.88 0 1.757 0.013 2.631 0.040l-0.128-0.003h76.8c0-9.813-3.84-19.627-5.547-28.587-0.838-4.49-1.317-9.656-1.317-14.934 0-46.991 37.983-85.111 84.922-85.332h341.354c47.128 0 85.333 38.205 85.333 85.333v0c-0.291 15.273-2.142 29.957-5.398 44.103l0.278-1.436h78.507c47.009 0.157 85.056 38.302 85.056 85.333 0 7.581-0.989 14.932-2.844 21.929l0.134-0.595zM768 576c23.564 0 42.667-19.103 42.667-42.667s-19.103-42.667-42.667-42.667c-23.564 0-42.667 19.103-42.667 42.667v0c0 23.564 19.103 42.667 42.667 42.667v0zM652.373 479.147c4.686-9.271 9.792-17.241 15.598-24.635l-0.238 0.315-12.8-12.373c-5.953 4.857-12.629 9.769-19.543 14.35l-0.937 0.584c6.366 6.555 12.252 13.659 17.552 21.207l0.368 0.553zM512 661.333c47.128 0 85.333-38.205 85.333-85.333s-38.205-85.333-85.333-85.333v0 0c-47.128 0-85.333 38.205-85.333 85.333s38.205 85.333 85.333 85.333v0zM369.92 442.027q-5.547 6.4-12.8 12.8c5.813 7.059 10.936 15.049 15.054 23.614l0.306 0.706c5.539-8.125 11.289-15.23 17.562-21.833l-0.069 0.073c-7.532-4.994-14.075-10.045-20.235-15.519l0.182 0.159zM256 576c23.564 0 42.667-19.103 42.667-42.667s-19.103-42.667-42.667-42.667c-23.564 0-42.667 19.103-42.667 42.667v0c0 23.564 19.103 42.667 42.667 42.667v0zM176.64 320c8.107 36.693 28.587 85.333 81.067 85.333 0.383 0.008 0.834 0.012 1.286 0.012 22.57 0 42.566-11.022 54.899-27.977l0.135-0.195c-9.027-15.944-17.792-34.792-25.102-54.351l-0.925-2.823zM341.333 192c33.707 187.733 104.96 213.333 170.667 213.333v0c64.853 0 136.107-26.453 170.667-213.333zM738.133 320c-8.402 21.046-17.71 39.018-28.523 55.935l0.79-1.321c12.577 18.631 33.613 30.72 57.472 30.72 0.045 0 0.090 0 0.135 0h-0.007c52.053 0 72.533-46.933 80.64-85.333z" />
<glyph unicode="&#xe949;" glyph-name="Interview" d="M768 618.667h-64v-85.333h64v-334.507l-98.133 78.507h-243.2v64h-34.987l-50.347-41.387v-22.613c0-47.128 38.205-85.333 85.333-85.333v0h213.333l144.213-118.613c7.198-5.728 16.422-9.191 26.454-9.191 23.495 0 42.555 18.991 42.666 42.46v426.678c0 47.128-38.205 85.333-85.333 85.333v0zM597.333 704v-256h-243.2l-98.133-78.507v334.507h341.333zM256 789.333c-47.128 0-85.333-38.205-85.333-85.333v0-426.667c0.111-23.48 19.171-42.471 42.666-42.471 10.032 0 19.256 3.462 26.541 9.258l-0.087-0.067 144.213 118.613h213.333c47.128 0 85.333 38.205 85.333 85.333v0 256c0 47.128-38.205 85.333-85.333 85.333v0z" />
<glyph unicode="&#xe94a;" glyph-name="Person" d="M708.267 380.587c-18.619 31.345-43.261 57.214-72.525 76.687l-0.862 0.54c30.784 30.868 49.819 73.467 49.819 120.512 0 9.27-0.739 18.368-2.162 27.237l0.129-0.976c-14.186 81.144-84.106 142.035-168.248 142.035-94.257 0-170.667-76.41-170.667-170.667 0-45.879 18.103-87.53 47.556-118.199l-0.055 0.058c-85.333-55.040-117.333-167.68-132.267-250.88-0.84-4.495-1.32-9.666-1.32-14.95 0-46.542 37.261-84.382 83.579-85.316l0.087-0.001h341.333c47.128 0 85.333 38.205 85.333 85.333v0c-5.093 70.3-26.645 134.637-60.785 190.436l1.052-1.849zM512 661.333c47.128 0 85.333-38.205 85.333-85.333s-38.205-85.333-85.333-85.333v0 0c-47.128 0-85.333 38.205-85.333 85.333s38.205 85.333 85.333 85.333v0zM341.333 192c33.707 188.16 104.533 213.333 170.667 213.333v0c65.28 0 136.107-26.453 170.667-213.333z" />
<glyph unicode="&#xe94b;" glyph-name="Required" d="M725.333 490.667h-110.507l78.080 78.080c9.153 7.872 14.914 19.467 14.914 32.407 0 23.564-19.103 42.667-42.667 42.667-12.94 0-24.535-5.761-32.36-14.858l-0.047-0.056-78.080-78.080v110.507c0 23.564-19.103 42.667-42.667 42.667s-42.667-19.103-42.667-42.667v0-110.507l-78.080 78.080c-7.412 6.377-17.129 10.259-27.753 10.259-23.564 0-42.667-19.103-42.667-42.667 0-10.624 3.883-20.341 10.307-27.809l-0.047 0.056 78.080-78.080h-110.507c-23.564 0-42.667-19.103-42.667-42.667s19.103-42.667 42.667-42.667v0h110.507l-78.080-78.080c-9.153-7.872-14.914-19.467-14.914-32.407 0-23.564 19.103-42.667 42.667-42.667 12.94 0 24.535 5.761 32.36 14.858l0.047 0.056 78.080 78.080v-110.507c0-23.564 19.103-42.667 42.667-42.667s42.667 19.103 42.667 42.667v0 110.507l78.080-78.080c7.872-9.153 19.467-14.914 32.407-14.914 23.564 0 42.667 19.103 42.667 42.667 0 12.94-5.761 24.535-14.858 32.36l-0.056 0.047-78.080 78.080h110.507c23.564 0 42.667 19.103 42.667 42.667s-19.103 42.667-42.667 42.667v0z" />
<glyph unicode="&#xe94c;" glyph-name="Request" d="M170.667 234.667v512h682.667v-607.147l-158.72 95.147zM85.333 704v-426.667c0-70.692 57.308-128 128-128v0h445.867c8.029-0.002 15.54-2.222 21.953-6.081l-0.193 0.107 192.853-116.053c6.377-3.693 14.016-5.901 22.165-5.973h0.021c7.69 0.024 14.895 2.079 21.114 5.657l-0.207-0.11c13.061 7.444 21.732 21.266 21.76 37.116v640.004c0 70.692-57.308 128-128 128v0h-597.333c-70.692 0-128-57.308-128-128v0zM640 405.333v0c0-23.564-19.103-42.667-42.667-42.667v0h-298.667c-23.564 0-42.667 19.103-42.667 42.667v0 0c0 23.564 19.103 42.667 42.667 42.667v0h298.667c23.564 0 42.667-19.103 42.667-42.667v0zM768 576v0c0-23.564-19.103-42.667-42.667-42.667v0h-426.667c-23.564 0-42.667 19.103-42.667 42.667v0 0c0 23.564 19.103 42.667 42.667 42.667v0h426.667c23.564 0 42.667-19.103 42.667-42.667v0z" />
<glyph unicode="&#xe94d;" glyph-name="Company" d="M768 789.333v-682.667h-512v682.667h512zM768 874.667h-512c-47.128 0-85.333-38.205-85.333-85.333v0-682.667c0-47.128 38.205-85.333 85.333-85.333v0h512c47.128 0 85.333 38.205 85.333 85.333v0 682.667c0 47.128-38.205 85.333-85.333 85.333v0zM597.333 320v-213.333h-170.667v213.333h170.667zM597.333 405.333h-170.667c-47.128 0-85.333-38.205-85.333-85.333v0-213.333c0-47.128 38.205-85.333 85.333-85.333v0h170.667c47.128 0 85.333 38.205 85.333 85.333v0 213.333c0 47.128-38.205 85.333-85.333 85.333v0zM341.333 661.333c0 23.564 19.103 42.667 42.667 42.667h256c23.564 0 42.667-19.103 42.667-42.667s-19.103-42.667-42.667-42.667h-256c-23.564 0-42.667 19.103-42.667 42.667zM341.333 533.333c0 23.564 19.103 42.667 42.667 42.667h256c23.564 0 42.667-19.103 42.667-42.667s-19.103-42.667-42.667-42.667h-256c-23.564 0-42.667 19.103-42.667 42.667z" />
<glyph unicode="&#xe94e;" glyph-name="Campus" d="M912.64 695.467l-384 161.707c-4.91 2.136-10.63 3.379-16.64 3.379s-11.73-1.243-16.917-3.485l0.277 0.106-384-161.707c-15.656-6.554-26.455-21.749-26.455-39.467s10.799-32.912 26.174-39.362l0.281-0.105 21.76-8.96v-334.507c0.049-16.849 9.857-31.395 24.066-38.289l0.254-0.111 335.787-162.987c5.479-2.745 11.939-4.352 18.773-4.352s13.294 1.607 19.021 4.464l-0.247-0.112 335.787 162.987c14.463 7.005 24.271 21.551 24.32 38.393v334.514l21.76 8.96c15.656 6.554 26.455 21.749 26.455 39.467s-10.799 32.912-26.174 39.362l-0.281 0.105zM512 771.84l274.347-115.627-290.987-122.88c-15.415-6.651-26.012-21.713-26.027-39.251v-67.842l-20.053 26.027c-6.91 8.606-16.961 14.445-28.388 15.768l-0.198 0.019h-5.12c-10.055-0.060-19.275-3.59-26.535-9.45l0.081 0.063-26.453-20.907v138.24c-0.015 17.54-10.611 32.602-25.75 39.147l-0.277 0.106-98.987 42.667zM805.547 299.947l-293.547-142.507-293.547 142.507v271.36l58.88-24.747v-196.693c0.111-23.48 19.171-42.471 42.666-42.471 10.032 0 19.256 3.462 26.541 9.258l-0.087-0.067 61.867 49.067 69.973-88.32c7.884-9.914 19.944-16.214 33.477-16.214 0.081 0 0.162 0 0.242 0.001h-0.012c4.891 0.056 9.58 0.832 13.995 2.226l-0.342-0.093c17.042 5.854 29.071 21.743 29.071 40.443 0 0.782-0.021 1.56-0.063 2.332l0.005-0.108v160l250.88 105.387z" />
<glyph unicode="&#xe94f;" glyph-name="Tie" d="M692.48 267.947l-72.107 308.053c23.45 22.071 41.908 49.166 53.684 79.59l0.503 1.477c5.642 13.907 8.916 30.039 8.916 46.936 0 70.692-57.308 128-128 128-0.285 0-0.569-0.001-0.853-0.003h-85.289c-0.813 0.019-1.772 0.029-2.733 0.029-44.496 0-83.689-22.704-106.626-57.16l-0.294-0.47c-13.499-19.969-21.549-44.584-21.549-71.079 0-17.934 3.688-35.006 10.347-50.5l-0.318 0.832c12.976-31.338 31.638-57.939 54.909-79.666l0.131-0.121-74.667-296.533c-1.876-7.314-2.952-15.711-2.952-24.359 0-27.929 11.228-53.235 29.416-71.652l85.323-85.323c18.342-18.176 43.593-29.406 71.467-29.406s53.125 11.231 71.474 29.414l-0.008-0.008 81.92 78.507c18.283 18.488 29.578 43.921 29.578 71.991 0 7.598-0.827 15.002-2.397 22.128l0.126-0.679zM469.333 746.667h85.333c1.029 0.088 2.228 0.139 3.438 0.139 23.564 0 42.667-19.103 42.667-42.667 0-6.063-1.265-11.831-3.545-17.054l0.107 0.275c-10.98-38.284-44.584-66.257-85.073-68.681l-0.261-0.012c-40.612 3.454-73.874 31.394-85.155 68.858l-0.178 0.689c-1.944 4.706-3.072 10.17-3.072 15.897 0 23.564 19.103 42.667 42.667 42.667 1.081 0 2.153-0.040 3.214-0.119l-0.142 0.008zM606.72 234.667l-81.92-78.933c-2.985-2.867-7.046-4.633-11.52-4.633s-8.535 1.766-11.526 4.638l0.006-0.005-85.333 85.333c-2.886 3.050-4.66 7.177-4.66 11.719 0 1.29 0.143 2.547 0.414 3.755l-0.021-0.114 69.12 276.907c4.602-0.423 9.953-0.664 15.36-0.664s10.758 0.241 16.042 0.713l-0.682-0.049c4.474-0.41 9.676-0.643 14.933-0.643s10.46 0.234 15.598 0.691l-0.664-0.048 67.413-286.293c0.025-0.33 0.039-0.715 0.039-1.103 0-4.413-1.811-8.403-4.73-11.268l-0.002-0.002z" />
<glyph unicode="&#xe950;" glyph-name="Charge" d="M298.667 405.333h-170.667c-23.564 0-42.667 19.103-42.667 42.667s19.103 42.667 42.667 42.667v0h170.667c23.564 0 42.667-19.103 42.667-42.667s-19.103-42.667-42.667-42.667v0zM512 618.667c-23.564 0-42.667 19.103-42.667 42.667v0 170.667c0 23.564 19.103 42.667 42.667 42.667s42.667-19.103 42.667-42.667v0-170.667c0-23.564-19.103-42.667-42.667-42.667v0zM512 21.333c-23.564 0-42.667 19.103-42.667 42.667v0 170.667c0 23.564 19.103 42.667 42.667 42.667s42.667-19.103 42.667-42.667v0-170.667c0-23.564-19.103-42.667-42.667-42.667v0zM238.507 131.84c-0.073 0-0.16-0.001-0.247-0.001-11.721 0-22.338 4.726-30.049 12.377l0.003-0.003c-7.668 7.712-12.407 18.343-12.407 30.080s4.74 22.368 12.409 30.082l120.745 120.745c7.412 6.377 17.129 10.259 27.753 10.259 23.564 0 42.667-19.103 42.667-42.667 0-10.624-3.883-20.341-10.307-27.809l0.047 0.056-120.747-120.747c-7.667-7.606-18.211-12.323-29.857-12.373h-0.010zM665.173 558.507c-0.073 0-0.16-0.001-0.247-0.001-11.721 0-22.338 4.726-30.049 12.377l0.003-0.003c-7.668 7.712-12.407 18.343-12.407 30.080s4.74 22.368 12.409 30.082l120.745 120.745c7.412 6.377 17.129 10.259 27.753 10.259 23.564 0 42.667-19.103 42.667-42.667 0-10.624-3.883-20.341-10.307-27.809l0.047 0.056-120.747-120.747c-7.667-7.606-18.211-12.323-29.857-12.373h-0.010zM358.827 558.507c-11.656 0.051-22.2 4.767-29.869 12.376l-120.744 120.744c-6.377 7.412-10.259 17.129-10.259 27.753 0 23.564 19.103 42.667 42.667 42.667 10.624 0 20.341-3.883 27.809-10.307l-0.056 0.047 120.747-120.747c7.668-7.712 12.407-18.343 12.407-30.080s-4.74-22.368-12.409-30.082l0.002 0.002c-7.709-7.648-18.326-12.374-30.047-12.374-0.087 0-0.173 0-0.26 0.001h0.013zM785.493 131.84c-11.656 0.051-22.2 4.767-29.869 12.376l-120.744 120.744c-6.377 7.412-10.259 17.129-10.259 27.753 0 23.564 19.103 42.667 42.667 42.667 10.624 0 20.341-3.883 27.809-10.307l-0.056 0.047 120.747-120.747c7.668-7.712 12.407-18.343 12.407-30.080s-4.74-22.368-12.409-30.082l0.002 0.002c-7.709-7.648-18.326-12.374-30.047-12.374-0.087 0-0.173 0-0.26 0.001h0.013zM896 405.333h-170.667c-23.564 0-42.667 19.103-42.667 42.667s19.103 42.667 42.667 42.667v0h170.667c23.564 0 42.667-19.103 42.667-42.667s-19.103-42.667-42.667-42.667v0z" />
<glyph unicode="&#xe951;" glyph-name="Unlink" d="M449.28 750.933c48.039 49.842 115.38 80.797 189.95 80.797 59.098 0 113.655-19.442 157.623-52.279l-0.693 0.495c61.086-47.753 99.985-121.446 99.985-204.224 0-71.155-28.742-135.596-75.25-182.348l0.011 0.011-61.013-60.587c-7.733-7.795-18.45-12.621-30.293-12.621s-22.56 4.826-30.291 12.618l-0.003 0.003c-7.795 7.733-12.621 18.45-12.621 30.293s4.826 22.56 12.618 30.291l0.003 0.003 60.587 61.013c31.54 30.989 51.086 74.096 51.086 121.768 0 53.114-24.263 100.562-62.311 131.863l-0.295 0.236c-29.714 23.086-67.545 37.011-108.629 37.011-50.101 0-95.366-20.709-127.701-54.033l-0.043-0.045-55.467-54.613c-7.733-7.795-18.45-12.621-30.293-12.621s-22.56 4.826-30.291 12.618l-0.003 0.003c-6.977 8.087-11.226 18.698-11.226 30.301 0 15.108 7.204 28.534 18.365 37.029l0.114 0.083zM869.973 269.653l-73.387 17.493c-2.272 0.429-4.886 0.675-7.557 0.675-20.785 0-38.099-14.863-41.894-34.54l-0.043-0.268c-0.478-2.396-0.751-5.151-0.751-7.969 0-20.812 14.902-38.144 34.617-41.909l0.267-0.042 72.96-17.067c2.373-0.461 5.103-0.724 7.893-0.724 23.964 0 43.391 19.427 43.391 43.391 0 21.173-15.165 38.804-35.226 42.624l-0.271 0.043zM771.84 106.667l-24.32 70.827c-6.438 15.91-21.761 26.93-39.659 26.93-5.694 0-11.127-1.115-16.093-3.139l0.285 0.103c-10.564-4.236-18.861-12.256-23.359-22.342l-0.108-0.271c-2.080-4.852-3.289-10.498-3.289-16.427s1.209-11.575 3.394-16.706l-0.106 0.279 24.32-70.827c5.475-17.683 21.682-30.305 40.837-30.305 23.564 0 42.667 19.103 42.667 42.667 0 7.007-1.689 13.619-4.682 19.452l0.112-0.24zM154.027 628.907l73.387-17.493c2.272-0.429 4.886-0.675 7.557-0.675 20.785 0 38.099 14.863 41.894 34.54l0.043 0.268c0.478 2.396 0.751 5.151 0.751 7.969 0 20.812-14.902 38.144-34.617 41.909l-0.267 0.042-72.107 17.067c-2.373 0.461-5.103 0.724-7.893 0.724-23.964 0-43.391-19.427-43.391-43.391 0-21.173 15.165-38.804 35.226-42.624l0.271-0.043zM252.16 789.333l24.32-70.827c6.438-15.91 21.761-26.93 39.659-26.93 5.694 0 11.127 1.115 16.093 3.139l-0.285-0.103c10.564 4.236 18.861 12.256 23.359 22.342l0.108 0.271c2.024 4.793 3.201 10.366 3.201 16.213s-1.176 11.42-3.305 16.495l0.105-0.281-23.893 72.533c-6.623 15.7-21.888 26.519-39.68 26.519-23.718 0-42.946-19.227-42.946-42.946 0-5.927 1.2-11.573 3.372-16.709l-0.106 0.282zM566.613 260.267l-54.613-54.187c-32.605-33.569-78.169-54.399-128.598-54.399-41.411 0-79.541 14.047-109.886 37.635l0.404-0.302c-38.204 31.535-62.369 78.898-62.369 131.904 0 47.555 19.45 90.568 50.83 121.517l60.606 60.606c7.795 7.733 12.621 18.45 12.621 30.293s-4.826 22.56-12.618 30.291l-0.003 0.003c-7.733 7.795-18.45 12.621-30.293 12.621s-22.56-4.826-30.291-12.618l-0.003-0.003-54.187-54.613c-49.276-47.761-79.86-114.56-79.86-188.502 0-58.658 19.247-112.82 51.77-156.517l-0.497 0.698c47.74-61.506 121.683-100.707 204.782-100.707 71.089 0 135.477 28.689 182.218 75.121l60.999 60.573c7.716 7.769 12.486 18.474 12.486 30.293 0 23.744-19.248 42.992-42.992 42.992-11.925 0-22.716-4.855-30.504-12.697l-0.002-0.002zM567.040 563.627l-170.667-170.667c-7.795-7.733-12.621-18.45-12.621-30.293s4.826-22.56 12.618-30.291l0.003-0.003c7.733-7.795 18.45-12.621 30.293-12.621s22.56 4.826 30.291 12.618l170.67 170.67c7.753 7.753 12.548 18.463 12.548 30.293 0 23.661-19.181 42.841-42.841 42.841-11.83 0-22.541-4.795-30.293-12.548v0z" />
</font>
</defs>
</svg>
