<svg width="40" height="40" viewBox="0 0 40 40" fill="none" xmlns="http://www.w3.org/2000/svg">
<path d="M15.8335 14.9834C17.2142 14.9834 18.3335 13.8641 18.3335 12.4834C18.3335 11.1027 17.2142 9.9834 15.8335 9.9834C14.4528 9.9834 13.3335 11.1027 13.3335 12.4834C13.3335 13.8641 14.4528 14.9834 15.8335 14.9834Z" fill="#3B3F51"/>
<path d="M24.167 14.9834C25.5477 14.9834 26.667 13.8641 26.667 12.4834C26.667 11.1027 25.5477 9.9834 24.167 9.9834C22.7863 9.9834 21.667 11.1027 21.667 12.4834C21.667 13.8641 22.7863 14.9834 24.167 14.9834Z" fill="#3B3F51"/>
<path d="M15.8335 23.3169C17.2142 23.3169 18.3335 22.1976 18.3335 20.8169C18.3335 19.4362 17.2142 18.3169 15.8335 18.3169C14.4528 18.3169 13.3335 19.4362 13.3335 20.8169C13.3335 22.1976 14.4528 23.3169 15.8335 23.3169Z" fill="#3B3F51"/>
<path d="M24.167 23.3169C25.5477 23.3169 26.667 22.1976 26.667 20.8169C26.667 19.4362 25.5477 18.3169 24.167 18.3169C22.7863 18.3169 21.667 19.4362 21.667 20.8169C21.667 22.1976 22.7863 23.3169 24.167 23.3169Z" fill="#3B3F51"/>
<path d="M15.8335 31.6499C17.2142 31.6499 18.3335 30.5306 18.3335 29.1499C18.3335 27.7692 17.2142 26.6499 15.8335 26.6499C14.4528 26.6499 13.3335 27.7692 13.3335 29.1499C13.3335 30.5306 14.4528 31.6499 15.8335 31.6499Z" fill="#3B3F51"/>
<path d="M24.167 31.6499C25.5477 31.6499 26.667 30.5306 26.667 29.1499C26.667 27.7692 25.5477 26.6499 24.167 26.6499C22.7863 26.6499 21.667 27.7692 21.667 29.1499C21.667 30.5306 22.7863 31.6499 24.167 31.6499Z" fill="#3B3F51"/>
</svg>
