<svg width="84" height="67" viewBox="0 0 84 67" fill="none" xmlns="http://www.w3.org/2000/svg">
<path d="M64.3988 25.5925C65.0431 23.8512 67.5059 23.8512 68.1502 25.5924L70.7429 32.5989C70.9454 33.1464 71.3771 33.578 71.9245 33.7806L78.931 36.3732C80.6722 37.0175 80.6722 39.4803 78.931 40.1246L71.9245 42.7172C71.3771 42.9198 70.9454 43.3514 70.7429 43.8989L68.1502 50.9053C67.5059 52.6466 65.0431 52.6466 64.3988 50.9053L61.8062 43.8989C61.6036 43.3514 61.172 42.9198 60.6246 42.7172L53.6181 40.1246C51.8769 39.4803 51.8768 37.0175 53.6181 36.3732L60.6246 33.7806C61.172 33.578 61.6036 33.1464 61.8062 32.5989L64.3988 25.5925Z" fill="white"/>
<path d="M21.4867 9.73308C22.131 7.99184 24.5938 7.99184 25.2381 9.73307L27.8307 16.7395C28.0333 17.287 28.4649 17.7186 29.0124 17.9212L36.0189 20.5138C37.7601 21.1581 37.7601 23.6209 36.0189 24.2652L29.0124 26.8578C28.4649 27.0604 28.0333 27.492 27.8307 28.0395L25.2381 35.046C24.5938 36.7872 22.131 36.7872 21.4867 35.046L18.8941 28.0395C18.6915 27.492 18.2599 27.0604 17.7125 26.8578L10.706 24.2652C8.96474 23.6209 8.96474 21.1581 10.706 20.5138L17.7125 17.9212C18.2599 17.7186 18.6915 17.287 18.8941 16.7396L21.4867 9.73308Z" fill="white"/>
<path d="M61.1442 21.4489C61.3053 21.0136 61.921 21.0136 62.0821 21.4489L64.6747 28.4554C65.0292 29.4134 65.7845 30.1688 66.7426 30.5233L73.749 33.1159C74.1843 33.277 74.1843 33.8927 73.749 34.0538L66.7426 36.6464C65.7845 37.0009 65.0292 37.7562 64.6747 38.7142L62.0821 45.7207C61.921 46.156 61.3053 46.156 61.1442 45.7207L58.5516 38.7142C58.1971 37.7562 57.4418 37.0009 56.4837 36.6464L49.4773 34.0538C49.0419 33.8927 49.042 33.277 49.4773 33.1159L56.4837 30.5233C57.4418 30.1688 58.1971 29.4134 58.5516 28.4554L61.1442 21.4489Z" stroke="#3B3F51" stroke-width="3"/>
<path d="M18.2287 5.58957C18.3898 5.15425 19.0055 5.15426 19.1665 5.58957L21.7592 12.596C22.1137 13.5541 22.869 14.3094 23.827 14.6639L30.8335 17.2565C31.2688 17.4176 31.2688 18.0333 30.8335 18.1944L23.827 20.787C22.869 21.1415 22.1137 21.8968 21.7592 22.8549L19.1665 29.8613C19.0055 30.2967 18.3898 30.2966 18.2287 29.8613L15.6361 22.8549C15.2816 21.8968 14.5262 21.1415 13.5682 20.787L6.56174 18.1944C6.12642 18.0333 6.12643 17.4176 6.56173 17.2565L13.5682 14.6639C14.5262 14.3094 15.2816 13.5541 15.6361 12.596L18.2287 5.58957Z" stroke="#3B3F51" stroke-width="3"/>
<path d="M28.0371 50.3091C28.7106 48.6407 31.0728 48.6407 31.7463 50.3091L32.572 52.3546C32.79 52.8946 33.2326 53.3128 33.7841 53.4999L35.5029 54.0829C37.313 54.6969 37.313 57.257 35.5029 57.871L33.7841 58.454C33.2326 58.6411 32.79 59.0593 32.572 59.5993L31.7463 61.6447C31.0728 63.3132 28.7106 63.3132 28.0371 61.6447L27.2114 59.5993C26.9934 59.0593 26.5508 58.6411 25.9992 58.454L24.2805 57.871C22.4704 57.257 22.4704 54.6969 24.2805 54.0829L25.9992 53.4999C26.5508 53.3128 26.9934 52.8946 27.2114 52.3546L28.0371 50.3091Z" fill="#3B3F51"/>
</svg>
