<svg width="24" height="24" viewBox="0 0 24 24" fill="none" xmlns="http://www.w3.org/2000/svg">
<rect width="24" height="24" fill="white"/>
<path fill-rule="evenodd" clip-rule="evenodd" d="M12 13.4999C11.7033 13.4999 11.4133 13.4119 11.1667 13.2471C10.92 13.0823 10.7277 12.848 10.6142 12.5739C10.5007 12.2998 10.471 11.9982 10.5288 11.7072C10.5867 11.4163 10.7296 11.149 10.9393 10.9392C11.1491 10.7294 11.4164 10.5866 11.7074 10.5287C11.9983 10.4708 12.2999 10.5005 12.574 10.6141C12.8481 10.7276 13.0824 10.9198 13.2472 11.1665C13.412 11.4132 13.5 11.7032 13.5 11.9999C13.5 12.3977 13.342 12.7792 13.0607 13.0605C12.7794 13.3418 12.3978 13.4999 12 13.4999ZM12 8.49987C11.3078 8.49987 10.6311 8.70514 10.0555 9.08973C9.47994 9.47431 9.03134 10.0209 8.76643 10.6605C8.50152 11.3 8.43221 12.0038 8.56726 12.6827C8.70231 13.3616 9.03565 13.9853 9.52513 14.4747C10.0146 14.9642 10.6383 15.2976 11.3172 15.4326C11.9961 15.5677 12.6999 15.4984 13.3394 15.2334C13.9789 14.9685 14.5256 14.5199 14.9102 13.9444C15.2947 13.3688 15.5 12.6921 15.5 11.9999C15.5 11.0716 15.1313 10.1814 14.4749 9.525C13.8185 8.86862 12.9283 8.49987 12 8.49987V8.49987ZM12.22 16.9999C7.91001 17.0999 5.10001 13.4099 4.22001 11.9999C5.22001 10.3899 7.83001 7.09987 11.83 6.99987C16.12 6.88987 18.94 10.5899 19.83 11.9999C18.8 13.6099 16.22 16.8999 12.22 16.9999ZM21.87 11.4999C21.23 10.3899 17.71 4.81987 11.73 4.99987C6.20001 5.13987 3.00001 9.99987 2.13001 11.4999C2.04224 11.6519 1.99603 11.8243 1.99603 11.9999C1.99603 12.1754 2.04224 12.3479 2.13001 12.4999C2.76001 13.5899 6.13001 18.9999 12.02 18.9999H12.27C17.8 18.8599 21.01 13.9999 21.87 12.4999C21.9578 12.3479 22.004 12.1754 22.004 11.9999C22.004 11.8243 21.9578 11.6519 21.87 11.4999Z" fill="#F79708"/>
</svg>
