<svg width="16" height="16" viewBox="0 0 16 16" fill="none" xmlns="http://www.w3.org/2000/svg">
<path d="M7.33337 10.7068C7.17447 10.7068 7.0208 10.65 6.90004 10.5468L4.23337 8.28676C4.09899 8.17183 4.01577 8.00823 4.00202 7.83195C3.98827 7.65567 4.04511 7.48114 4.16004 7.34676C4.27496 7.21239 4.43856 7.12917 4.61485 7.11541C4.79113 7.10166 4.96566 7.1585 5.10004 7.27343L7.27337 9.12676L10.86 5.49343C10.9847 5.36789 11.1541 5.29702 11.331 5.29639C11.5079 5.29577 11.6778 5.36544 11.8034 5.49009C11.9289 5.61475 11.9998 5.78416 12.0004 5.96107C12.001 6.13798 11.9314 6.30789 11.8067 6.43343L7.8067 10.5068C7.74496 10.5698 7.67133 10.6199 7.59008 10.6542C7.50883 10.6885 7.42157 10.7064 7.33337 10.7068Z" fill="white"/>
</svg>
