<svg width="16" height="16" viewBox="0 0 16 16" fill="none" xmlns="http://www.w3.org/2000/svg">
<path d="M9.66671 4.00001C9.75445 3.9995 9.84142 4.01632 9.92265 4.0495C10.0039 4.08267 10.0777 4.13156 10.14 4.19334C10.2025 4.25532 10.2521 4.32905 10.286 4.41029C10.3198 4.49153 10.3372 4.57867 10.3372 4.66668C10.3372 4.75469 10.3198 4.84182 10.286 4.92306C10.2521 5.0043 10.2025 5.07804 10.14 5.14001L7.27337 8.00001L10.14 10.86C10.2656 10.9855 10.3361 11.1558 10.3361 11.3333C10.3361 11.5109 10.2656 11.6811 10.14 11.8067C10.0145 11.9322 9.84424 12.0027 9.66671 12.0027C9.48917 12.0027 9.31891 11.9322 9.19337 11.8067L5.86004 8.47334C5.79756 8.41137 5.74796 8.33764 5.71411 8.2564C5.68027 8.17516 5.66284 8.08802 5.66284 8.00001C5.66284 7.912 5.68027 7.82487 5.71411 7.74363C5.74796 7.66239 5.79756 7.58865 5.86004 7.52668L9.19337 4.19334C9.25567 4.13156 9.32955 4.08267 9.41077 4.0495C9.49199 4.01632 9.57897 3.9995 9.66671 4.00001Z" fill="#F79708"/>
</svg>
