<svg width="16" height="16" viewBox="0 0 16 16" fill="none" xmlns="http://www.w3.org/2000/svg">
<path d="M6.33337 12C6.24564 12.0005 6.15866 11.9837 6.07744 11.9506C5.99621 11.9174 5.92233 11.8685 5.86004 11.8067C5.79756 11.7447 5.74796 11.671 5.71411 11.5898C5.68027 11.5085 5.66284 11.4214 5.66284 11.3334C5.66284 11.2454 5.68027 11.1582 5.71411 11.077C5.74796 10.9958 5.79756 10.922 5.86004 10.86L8.72671 8.00004L5.86004 5.14004C5.7345 5.01451 5.66398 4.84424 5.66398 4.66671C5.66398 4.48917 5.7345 4.31891 5.86004 4.19338C5.98558 4.06784 6.15584 3.99731 6.33337 3.99731C6.51091 3.99731 6.68117 4.06784 6.80671 4.19338L10.14 7.52671C10.2025 7.58868 10.2521 7.66242 10.286 7.74366C10.3198 7.8249 10.3372 7.91203 10.3372 8.00004C10.3372 8.08805 10.3198 8.17519 10.286 8.25643C10.2521 8.33767 10.2025 8.4114 10.14 8.47338L6.80671 11.8067C6.74441 11.8685 6.67054 11.9174 6.58931 11.9506C6.50809 11.9837 6.42111 12.0005 6.33337 12Z" fill="#F79708"/>
</svg>
