<svg width="24" height="24" viewBox="0 0 24 24" fill="none" xmlns="http://www.w3.org/2000/svg">
<path d="M12 15.5003C12.9283 15.5003 13.8185 15.1315 14.4749 14.4751C15.1313 13.8187 15.5 12.9285 15.5 12.0003C15.5 11.9203 15.5 11.8403 15.5 11.7603L11 15.3503C11.3241 15.4492 11.6611 15.4998 12 15.5003Z" fill="#3B3F51"/>
<path d="M6.00001 14.2604C5.31627 13.5699 4.70322 12.8128 4.17001 12.0004C5.17001 10.3904 7.78001 7.10042 11.78 7.00042C12.6904 6.98118 13.5962 7.13385 14.45 7.45042L16.21 6.00042C14.8231 5.2996 13.2833 4.95589 11.73 5.00042C6.20001 5.14042 3.00001 10.0004 2.13001 11.5004C2.04224 11.6524 1.99603 11.8249 1.99603 12.0004C1.99603 12.176 2.04224 12.3484 2.13001 12.5004C2.78215 13.5912 3.56456 14.5986 4.46001 15.5004L6.00001 14.2604Z" fill="#3B3F51"/>
<path d="M21.87 11.5C21.2178 10.4092 20.4354 9.40182 19.54 8.5L18 9.74C18.6837 10.4305 19.2968 11.1876 19.83 12C18.83 13.61 16.22 16.9 12.22 17C11.3099 17.0153 10.4048 16.8627 9.54998 16.55L7.78998 18C9.09645 18.6562 10.538 18.9986 12 19H12.25C17.78 18.86 20.99 14 21.85 12.5C21.9408 12.3497 21.9905 12.1782 21.994 12.0027C21.9975 11.8271 21.9547 11.6538 21.87 11.5V11.5Z" fill="#3B3F51"/>
<path d="M12 8.5C11.0717 8.5 10.1815 8.86875 9.52513 9.52513C8.86875 10.1815 8.5 11.0717 8.5 12C8.5 12.08 8.5 12.16 8.5 12.24L13 8.65C12.6759 8.55101 12.3389 8.50047 12 8.5V8.5Z" fill="#3B3F51"/>
<path d="M4.38998 19.3502C4.24554 19.3502 4.10282 19.3189 3.97162 19.2585C3.84042 19.1981 3.72387 19.1099 3.62998 19.0002C3.5452 18.8998 3.48105 18.7836 3.4412 18.6584C3.40134 18.5331 3.38656 18.4013 3.39771 18.2703C3.40885 18.1393 3.4457 18.0119 3.50615 17.8952C3.56659 17.7785 3.64945 17.6748 3.74998 17.5902L19 4.88018C19.2042 4.71044 19.4675 4.62878 19.7319 4.65316C19.9963 4.67754 20.2402 4.80596 20.41 5.01018C20.5797 5.21439 20.6614 5.47768 20.637 5.7421C20.6126 6.00653 20.4842 6.25044 20.28 6.42018L4.99998 19.1202C4.82805 19.2628 4.6133 19.3438 4.38998 19.3502V19.3502Z" fill="#3B3F51"/>
</svg>
