<svg width="16" height="16" viewBox="0 0 16 16" fill="none" xmlns="http://www.w3.org/2000/svg">
<g clip-path="url(#clip0)">
<path d="M15.2232 4.70404C15.1875 3.8539 15.0566 3.26944 14.869 2.76299C14.6755 2.22541 14.3779 1.74411 13.9879 1.34401C13.6068 0.937683 13.1454 0.621948 12.6393 0.421957C12.1542 0.22502 11.6005 0.0875415 10.7908 0.0500586C9.97514 0.00940124 9.71618 0 7.64733 0C5.57847 0 5.31952 0.00940124 4.50683 0.0468842C3.69718 0.0843671 3.14054 0.221967 2.65833 0.418783C2.14623 0.621948 1.68786 0.934509 1.30681 1.34401C0.919826 1.74411 0.619242 2.22858 0.428659 2.75994C0.241099 3.26944 0.110167 3.85073 0.0744693 4.70087C0.035748 5.55736 0.0267944 5.82926 0.0267944 8.00156C0.0267944 10.1739 0.035748 10.4458 0.071446 11.2991C0.107144 12.1492 0.238192 12.7337 0.425751 13.2401C0.619242 13.7777 0.919826 14.259 1.30681 14.6591C1.68786 15.0654 2.14926 15.3812 2.65531 15.5812C3.14054 15.7781 3.69415 15.9156 4.50393 15.9531C5.31649 15.9907 5.57557 15.9999 7.64442 15.9999C9.71328 15.9999 9.97223 15.9907 10.7849 15.9531C11.5946 15.9156 12.1512 15.7781 12.6334 15.5812C13.6575 15.1654 14.4672 14.3153 14.8631 13.2401C15.0505 12.7306 15.1816 12.1492 15.2173 11.2991C15.253 10.4458 15.2619 10.1739 15.2619 8.00156C15.2619 5.82926 15.2589 5.55736 15.2232 4.70404ZM13.851 11.2366C13.8182 12.018 13.6932 12.4399 13.589 12.7212C13.333 13.4183 12.8061 13.9715 12.1423 14.2403C11.8743 14.3497 11.4696 14.481 10.7283 14.5153C9.92456 14.5529 9.68351 14.5622 7.65035 14.5622C5.61719 14.5622 5.37312 14.5529 4.5723 14.5153C3.82811 14.481 3.42624 14.3497 3.15833 14.2403C2.82798 14.1121 2.52728 13.909 2.28321 13.6433C2.03018 13.3838 1.83669 13.0713 1.7146 12.7244C1.61041 12.4431 1.48541 12.018 1.45274 11.2397C1.41692 10.3958 1.40809 10.1426 1.40809 8.00779C1.40809 5.87297 1.41692 5.6167 1.45274 4.77596C1.48541 3.99455 1.61041 3.5726 1.7146 3.29129C1.83669 2.9443 2.03018 2.62869 2.28623 2.37229C2.53321 2.10661 2.83089 1.90345 3.16136 1.77537C3.42927 1.66597 3.83415 1.53472 4.57532 1.50029C5.37905 1.46281 5.62022 1.45341 7.65326 1.45341C9.68944 1.45341 9.93049 1.46281 10.7313 1.50029C11.4755 1.53472 11.8774 1.66597 12.1453 1.77537C12.4756 1.90345 12.7763 2.10661 13.0204 2.37229C13.2734 2.63174 13.4669 2.9443 13.589 3.29129C13.6932 3.5726 13.8182 3.99761 13.851 4.77596C13.8867 5.61987 13.8956 5.87297 13.8956 8.00779C13.8956 10.1426 13.8867 10.3927 13.851 11.2366Z" fill="#B9B9B9"/>
<path d="M7.6473 3.8916C5.48624 3.8916 3.73285 5.73254 3.73285 8.00178C3.73285 10.271 5.48624 12.112 7.6473 12.112C9.80849 12.112 11.5618 10.271 11.5618 8.00178C11.5618 5.73254 9.80849 3.8916 7.6473 3.8916ZM7.6473 10.6679C6.24531 10.6679 5.10809 9.47399 5.10809 8.00178C5.10809 6.52957 6.24531 5.33561 7.6473 5.33561C9.04941 5.33561 10.1865 6.52957 10.1865 8.00178C10.1865 9.47399 9.04941 10.6679 7.6473 10.6679Z" fill="#B9B9B9"/>
<path d="M12.6305 3.72883C12.6305 4.25871 12.2213 4.68836 11.7165 4.68836C11.2119 4.68836 10.8027 4.25871 10.8027 3.72883C10.8027 3.19881 11.2119 2.76929 11.7165 2.76929C12.2213 2.76929 12.6305 3.19881 12.6305 3.72883Z" fill="#B9B9B9"/>
</g>
<defs>
<clipPath id="clip0">
<rect width="15.2381" height="16" fill="white"/>
</clipPath>
</defs>
</svg>
