<svg width="16" height="16" viewBox="0 0 16 16" fill="none" xmlns="http://www.w3.org/2000/svg">
<g clip-path="url(#clip0)">
<path d="M15.991 6.66068C15.9852 6.33929 15.9597 5.93293 15.9152 5.44198C15.8705 4.95074 15.8065 4.51173 15.7232 4.12492C15.6279 3.69045 15.4211 3.32434 15.1027 3.02672C14.7843 2.72903 14.4137 2.55647 13.991 2.50878C12.6694 2.36007 10.6725 2.28564 7.99995 2.28564C5.32741 2.28564 3.33039 2.36007 2.00896 2.50878C1.58628 2.55644 1.21717 2.72903 0.901782 3.02672C0.586271 3.32425 0.380902 3.69036 0.285646 4.12492C0.196456 4.51186 0.129407 4.95084 0.0847805 5.44198C0.0402168 5.93293 0.0148858 6.33913 0.00897529 6.66068C0.00293964 6.9821 0 7.42849 0 7.99996C0 8.57138 0.00293964 9.01789 0.00900656 9.33925C0.0149171 9.66086 0.0402481 10.067 0.0848118 10.5579C0.129438 11.0491 0.193453 11.4881 0.276795 11.875C0.372052 12.3096 0.578859 12.6757 0.89731 12.9731C1.21582 13.2708 1.58644 13.4434 2.00899 13.491C3.33043 13.6399 5.32732 13.7143 7.99998 13.7143C10.6727 13.7143 12.6695 13.6399 13.991 13.491C14.4137 13.4434 14.7827 13.2708 15.0982 12.9731C15.4137 12.6756 15.619 12.3094 15.7142 11.875C15.8035 11.4881 15.8705 11.0491 15.9152 10.5579C15.9597 10.067 15.985 9.66067 15.991 9.33925C15.997 9.01789 16 8.57138 16 7.99996C16 7.42849 15.997 6.9821 15.991 6.66068ZM11.1607 8.48213L6.58936 11.3392C6.50599 11.3987 6.4047 11.4284 6.2857 11.4284C6.19648 11.4284 6.10423 11.4045 6.009 11.3569C5.81261 11.2499 5.71444 11.0832 5.71444 10.857V5.14291C5.71444 4.91684 5.81264 4.7501 6.009 4.64299C6.21143 4.53569 6.40482 4.54169 6.58936 4.66084L11.1608 7.51793C11.3393 7.61894 11.4285 7.77974 11.4285 8C11.4285 8.22016 11.3392 8.38102 11.1607 8.48213Z" fill="#B9B9B9"/>
</g>
<defs>
<clipPath id="clip0">
<rect width="16" height="16" fill="white"/>
</clipPath>
</defs>
</svg>
